<?xml version="1.0" encoding="UTF-8" standalone="no"?>
<svg
   xmlns:dc="http://purl.org/dc/elements/1.1/"
   xmlns:cc="http://creativecommons.org/ns#"
   xmlns:rdf="http://www.w3.org/1999/02/22-rdf-syntax-ns#"
   xmlns:svg="http://www.w3.org/2000/svg"
   xmlns="http://www.w3.org/2000/svg"
   xmlns:sodipodi="http://sodipodi.sourceforge.net/DTD/sodipodi-0.dtd"
   xmlns:inkscape="http://www.inkscape.org/namespaces/inkscape"
   id="chrismarkstag"
   viewBox="0 0 318 140"
   width="100%"
   version="1.1"
   inkscape:version="0.48.4 r9939"
   height="100%"
   sodipodi:docname="name.svg">
  <metadata
     id="metadata3057">
    <rdf:RDF>
      <cc:Work
         rdf:about="">
        <dc:format>image/svg+xml</dc:format>
        <dc:type
           rdf:resource="http://purl.org/dc/dcmitype/StillImage" />
      </cc:Work>
    </rdf:RDF>
  </metadata>
  <defs
     id="defs3055" />
  <sodipodi:namedview
     pagecolor="#ffffff"
     bordercolor="#666666"
     borderopacity="1"
     objecttolerance="10"
     gridtolerance="10"
     guidetolerance="10"
     inkscape:pageopacity="0"
     inkscape:pageshadow="2"
     inkscape:window-width="1600"
     inkscape:window-height="876"
     id="namedview3053"
     showgrid="false"
     inkscape:zoom="4.6132075"
     inkscape:cx="159"
     inkscape:cy="70"
     inkscape:window-x="0"
     inkscape:window-y="24"
     inkscape:window-maximized="1"
     inkscape:current-layer="chrismarkstag" />
  <g
     id="layer1"
     transform="translate(-156.77832,-75.533421)"
     style="fill:#ffffff">
    <path
       id="chrismarkstagnodes"
       d="m178.57,213.69c-0.86054-0.53071-1.6662-1.9905-1.5342-2.7801,0.12814-0.76693,6.0933-2.2695,6.8938-1.7365,0.15057,0.10028,1.0204,0.0664,1.9328-0.0752,1.599-0.24817,1.7101-0.23369,3.0699,0.40001,1.3142,0.61247,2.7339,0.85824,4.6628,0.80724,0.38283-0.0102,2.6417-0.0339,5.0197-0.0528s4.7277-0.0839,5.2215-0.1443c1.0973-0.13429,5.8004-0.28952,6.9816-0.23042,0.47249,0.0236,2.7516-0.0859,5.0648-0.24336,2.3132-0.15747,5.1477-0.32456,6.2989-0.3713,1.1512-0.0467,2.5721-0.15182,3.1574-0.23355,1.967-0.27462,5.064-0.31447,5.4313-0.0699,0.22367,0.14892,0.29143,0.12108,0.17569-0.0722-0.11605-0.19388,0.18244-0.31284,0.77787-0.30999,0.53145,0.003,1.4942-0.0745,2.1394-0.17112,0.64527-0.0966,1.745-0.14628,2.4439-0.11026,0.69887,0.0361,1.3575,0.0121,1.4638-0.0532,0.19558-0.12021,1.6468-0.22146,7.0116-0.48927,1.6335-0.0815,3.4437-0.18393,4.0226-0.22755,0.57903-0.0436,2.0768-0.14263,3.3285-0.22003,1.2516-0.0774,2.7541-0.20461,3.3389-0.28261,1.0777-0.14378,2.5295-0.25687,3.1595-0.24612,1.0769,0.0184,1.4184-0.0239,1.8744-0.23194,0.27748-0.12665,0.88748-0.16628,1.3555-0.0881,0.46798,0.0782,1.2795,0.0542,1.8032-0.0533,1.6759-0.34391,4.5988-0.63858,5.2518-0.52947,0.34794,0.0581,1.2974-0.01,2.1098-0.15078,0.81244-0.14106,1.7031-0.21873,1.9792-0.1726,0.27611,0.0461,0.61414-0.0106,0.75124-0.12612,0.13706-0.11551,0.58915-0.15321,1.0046-0.0838,0.41548,0.0694,0.91558,0.054,1.1114-0.0343,0.39048-0.17611,4.2127-0.42905,6.0838-0.40262,0.64912,0.009,2.2085-0.13816,3.4653-0.32739,1.2568-0.18924,2.5918-0.29281,2.9668-0.23017,0.74756,0.1249,3.8577-0.0303,4.9934-0.24921,0.72973-0.14065,1.111-0.14311,3.3819-0.0217,0.70835,0.0378,1.3042-0.0293,1.3242-0.14917,0.02-0.11992,0.20315-0.19017,0.40687-0.15614,0.20373,0.034,0.87441-0.014,1.4904-0.10674,0.61599-0.0928,1.7486-0.19771,2.5168-0.23327,0.76817-0.0356,3.5331-0.253,6.1443-0.48321s5.2917-0.40903,5.9567-0.39736c0.66506,0.0117,3.0259-0.1199,5.2462-0.29239,2.2204-0.17248,4.8986-0.33707,5.9515-0.36573,1.621-0.0441,7.3582-0.38394,9.0988-0.5389,0.29019-0.0258,0.71352,0.007,0.94074,0.0727,0.2272,0.0658,0.4312,0.0114,0.45329-0.12079,0.0221-0.1323,0.77195-0.18735,1.6663-0.12234,0.8943,0.0651,2.7407-0.0204,4.103-0.18976,3.1803-0.39541,8.1304-0.71821,9.413-0.61384,0.54863,0.0446,1.1812,0.0131,1.4058-0.07,0.22461-0.0831,1.2656-0.14874,2.3132-0.1458,1.0477,0.003,2.2663-0.0914,2.7081-0.2096,0.44183-0.1182,1.1879-0.15066,1.6579-0.0721,0.47003,0.0785,0.87094,0.0448,0.89093-0.0748,0.02-0.11966,0.61778-0.19794,1.3284-0.17396,0.71061,0.0239,1.7913-0.0756,2.4015-0.22128,0.61016-0.14568,1.9552-0.26333,2.9888-0.26142,1.0337,0.002,2.3908-0.0839,3.0158-0.19075,0.62496-0.10684,1.5975-0.0657,2.1612,0.0913,0.69383,0.19339,0.92773,0.18674,0.72407-0.0203-0.33435-0.33992,1.541-0.62339,3.4491-0.52138,0.61387,0.0328,1.1296-0.0208,1.146-0.11919,0.0164-0.0983,0.6981-0.21218,1.5149-0.25293,1.3255-0.0661,7.0393-0.56596,8.8786-0.77667,2.4382-0.27932,4.8165-0.49901,6.3346-0.58518,4.4861-0.25457,6.4234-0.40976,7.9019-0.63305,0.87976-0.13286,2.7915-0.24953,4.2484-0.25927,1.4569-0.01,3.3469-0.12344,4.2002-0.25269,0.8532-0.12925,2.6526-0.29407,3.9987-0.36627,1.346-0.0722,2.6859-0.15886,2.9773-0.19259,0.2915-0.0337,0.60769-0.0598,0.7027-0.058,0.095,0.002,0.36221-0.0486,0.59378-0.11208,0.23162-0.0634,0.67488,0.003,0.98493,0.14824,0.34738,0.16242,0.49816,0.1539,0.39274-0.0222-0.10269-0.17146,1.8906-0.41621,4.9829-0.61181,2.8347-0.17932,5.6277-0.36125,6.2066-0.4043,1.9904-0.148,5.2592-0.35937,6.4801-0.41901,0.67245-0.0329,2.2518-0.15342,3.5097-0.26792,1.2578-0.11449,3.7012-0.2736,5.4297-0.35356,4.8947-0.22648,8.3191-0.72839,8.2736-1.2127-0.0239-0.2545-0.41893-0.49059-1.04-0.62154-0.55083-0.11606-2.196-0.52737-3.656-0.91388-3.6158-0.95721-12.856-2.5297-20.046-3.4112-12.412-1.5219-15.79-1.9042-17.343-1.9628-0.66279-0.025-1.9685-0.1428-2.9014-0.26182-7.7563-0.98947-11.371-1.4406-12.389-1.5461-6.7265-0.69757-24.347-3.4742-31.397-4.9475-3.6603-0.76492-8.0755-2.0443-8.4823-2.4579-0.39317-0.39974,0.15291-1.7546,0.90025-2.2334,1.9681-1.261,5.2593-4.2185,5.3591-4.8157,0.0238-0.14218,0.90772-1.2636,1.9644-2.4921s2.0316-2.4779,2.1665-2.7764c0.13484-0.29854,0.51542-1.0638,0.84563-1.7007,0.33027-0.63684,0.68532-1.3702,0.78901-1.6297,0.10378-0.25947,0.68649-1.521,1.295-2.8033,0.60854-1.2824,1.1981-2.5993,1.3102-2.9266,0.11207-0.32729,0.34566-0.7129,0.51907-0.85694,0.17341-0.14402,0.24987-0.37114,0.16989-0.50472-0.08-0.13359,0.34563-1.3362,0.94578-2.6724,0.6002-1.3363,1.1488-2.7743,1.2192-3.1957,0.0704-0.42137,0.33653-0.84769,0.5914-0.94737,0.62306-0.24369,4.0454-0.41513,6.901-0.34567,2.1205,0.0516,2.8602,0.3768,3.6811,1.6187,0.38566,0.58346,0.62455,1.048,0.53095,1.0324-0.0937-0.0157-0.0497,0.20922,0.0977,0.49972,0.14743,0.29049,0.28278,0.96423,0.30089,1.4972,0.0181,0.53297,0.11188,1.322,0.20844,1.7533,0.25053,1.1195,1.037,8.4679,1.0831,10.121,0.0214,0.76478,0.15114,2.2019,0.28839,3.1937,0.27507,1.9879-0.12604,3.3492-1.0002,3.3943-0.31212,0.0162-0.80909,0.0757-1.1044,0.13239-0.29536,0.0567-2.2292-0.30494-4.2975-0.80359-2.0683-0.4987-3.9723-0.85927-4.2311-0.80131-0.25873,0.0581-0.99629,0.72938-1.6389,1.492-0.64267,0.76258-1.3443,1.5538-1.5593,1.7582-0.21497,0.20441-0.41443,0.51249-0.44319,0.68463-0.0288,0.17213-0.63537,0.93006-1.348,1.6843-0.71268,0.75422-1.2433,1.5294-1.1791,1.7226,0.0683,0.20569,0.98706,0.57705,2.2163,0.89578,2.3263,0.6032,16.017,2.8926,19.49,3.2595,1.2172,0.12845,4.0434,0.47791,6.2804,0.7765,6.7345,0.89893,9.7325,1.2399,11.941,1.3581,1.1552,0.0618,3.7613,0.32846,5.7914,0.59255,2.03,0.26405,4.0551,0.48424,4.5001,0.48922,0.445,0.005,3.2541,0.36194,6.2423,0.79324,2.9883,0.43134,5.5605,0.75082,5.7162,0.71004,0.54307-0.14236,16.552,2.6319,18.422,3.1925,3.9013,1.1694,9.9779,2.7154,12.144,3.0897,1.2348,0.21342,2.3115,0.49877,2.3926,0.63416,0.081,0.13537,0.57475,0.25526,1.097,0.26632,0.62092,0.0132,1.5787,0.35279,2.7673,0.98109,1.4104,0.74553,1.8939,1.1656,2.158,1.8745,0.33876,0.9095,0.27681,1.5341-0.17447,1.7592-0.13029,0.0649-0.18384,0.27785-0.11898,0.47307,0.0648,0.19521-0.19778,0.69766-0.58362,1.1165-0.92582,1.0052-2.7264,1.206-6.4891,0.72375-1.609-0.20627-3.8656-0.34776-5.0146-0.31451-2.8884,0.0836-6.6984,0.23947-8.3834,0.34299-0.77597,0.0477-2.0263,0.0652-2.7784,0.0389-0.75223-0.0262-1.6585,0.009-2.0139,0.0789-0.35542,0.0697-0.98386,0.0982-1.3966,0.0634-0.4127-0.0348-1.4275-0.0355-2.255-0.001-1.5158,0.0622-2.9758,0.0231-4.5489-0.12199-1.2376-0.1141-2.5005,0.003-3.0632,0.28323-0.51673,0.25766-3.8605,0.47198-4.8318,0.3097-0.31364-0.0524-0.99829-0.0107-1.5213,0.0926-0.52311,0.10334-1.4314,0.26281-2.0184,0.35438-0.58699,0.0916-1.1645,0.2339-1.2832,0.3163-0.11884,0.0824-1.0506,0.06-2.0707-0.0498-2.5733-0.27691-4.1187-0.26802-3.9446,0.0227,0.0809,0.13506-0.1166,0.20152-0.43881,0.14768-0.73208-0.12231-2.7367-0.0135-4.1832,0.22703-1.3778,0.22914-3.5464,0.29243-4.7296,0.13806-0.49737-0.065-0.84652-0.0592-0.77595,0.0125,0.14151,0.14386-1.643,0.42929-3.1575,0.50502-0.58901,0.0295-0.87639-0.0285-0.73443-0.14815,0.12825-0.10807,0.0725-0.22335-0.12379-0.25614-0.1963-0.0328-0.37534,0.0505-0.39783,0.18516-0.0225,0.13465-0.2499,0.2099-0.50526,0.16723-0.2554-0.0427-0.6808,0.0561-0.94536,0.21951-0.26451,0.16341-0.89889,0.22728-1.4096,0.14194-0.51082-0.0853-1.1294-0.0312-1.3749,0.1204-0.24535,0.15157-1.1362,0.23615-1.9795,0.18797-0.84335-0.0482-1.5527,0.0276-1.5762,0.16838-0.0235,0.14081-0.24208,0.16283-0.48569,0.0489-0.24356-0.11389-0.60366-0.12691-0.80018-0.0289-0.5266,0.26257-1.8199,0.17975-2.0043-0.12836-0.0879-0.14684-0.31435-0.2265-0.50312-0.17703-0.18878,0.0495-0.27222,0.20858-0.1854,0.35354,0.15021,0.25083-1.8275,0.35249-2.4133,0.12405-0.15305-0.0596-0.4676-0.0434-0.699,0.0361-0.23147,0.0795-0.87077,0.0904-1.4208,0.0243-0.54997-0.0661-1.098-0.0522-1.2179,0.0309-0.412,0.2857-2.913,0.58156-3.7433,0.44283-0.45724-0.0764-0.8497-0.0287-0.8722,0.10591-0.0225,0.13465-0.38273,0.19089-0.80046,0.12499-0.86985-0.13722-4.8705,0.14122-4.1484,0.28871,1.3296,0.27153-1.2359,0.40492-2.6797,0.13927-0.41596-0.0766-0.77277-0.0407-0.79289,0.0797-0.0201,0.12039-0.19318,0.19274-0.38452,0.16077-0.19135-0.032-0.94256,0.0313-1.6693,0.14067-0.72679,0.10931-1.767,0.16197-2.3116,0.11699-0.54463-0.045-1.1868-0.004-1.427,0.0911-0.24022,0.0951-1.1148,0.10127-1.9436,0.0137-0.82874-0.0876-1.7626-0.12207-2.0752-0.0767-0.31262,0.0453-0.70098,0.0367-0.863-0.0193-0.16204-0.0559-0.53336-0.0725-0.82512-0.0369-0.29184,0.0357-0.91533,0.0344-1.3855-0.003-0.57736-0.0457-0.84705,0.0698-0.83057,0.35551,0.0246,0.42611-0.34764,0.4656-3.0951,0.32846-0.66146-0.033-1.6744-0.0367-2.2508-0.008-1.9511,0.0967-4.8725,0.16364-6,0.13743-0.61694-0.0144-1.1342,0.0485-1.1494,0.13953-0.0577,0.34558-4.5345,0.67403-7.0158,0.51471-1.5359-0.0986-2.2884-0.0205-1.381,0.14336,0.26196,0.0478-0.70738,0.17239-2.1543,0.27796s-2.8697,0.22203-3.1617,0.25883c-0.55779,0.0703-0.92911,0.0732-1.6685,0.013-0.24631-0.0201-0.36057,0.10869-0.25416,0.28639,0.11496,0.19202,0.057,0.232-0.14334,0.0987-0.18513-0.12329-0.70596-0.18294-1.1575-0.13256-0.45145,0.0503-1.5258,0.11164-2.3875,0.13626-0.86168,0.0246-1.8861,0.0903-2.2766,0.14594-0.63806,0.0909-3.0621,0.1822-5.9331,0.22342-0.57602,0.008-1.6038,0.0939-2.284,0.19032-2.7278,0.38667-3.2678,0.40995-4.5481,0.19605-0.74946-0.12522-1.3523-0.10406-1.3777,0.0484-0.0249,0.14904-0.25759,0.17173-0.5171,0.0504-0.25945-0.12131-0.582-0.12765-0.71672-0.0142-0.13474,0.11352-0.41901,0.15211-0.63179,0.0858-0.52045-0.16228-1.959-0.0421-1.9947,0.16672-0.0157,0.0919-0.52444,0.11006-1.1304,0.0405-0.606-0.0695-1.1722-0.0226-1.2583,0.10431-0.0861,0.12696-0.51046,0.17169-0.94302,0.0994-0.43259-0.0723-0.85488-0.0333-0.93844,0.0865-0.0836,0.11986-0.69035,0.17429-1.3484,0.12092-1.5588-0.12643-2.7657-0.0374-2.8065,0.20697-0.0179,0.1071-0.6517,0.16781-1.4085,0.13491s-1.3883,0.0137-1.4033,0.10353c-0.0473,0.2829-2.5328,0.38682-6.2534,0.26143-1.9749-0.0665-3.7132-0.0178-3.8628,0.10826-0.14966,0.12611-0.81447,0.16013-1.4774,0.0756-0.66294-0.0845-1.1582-0.0737-1.1006,0.024s-0.20645,0.18449-0.58663,0.1929c-0.38025,0.008-0.76079-0.10075-0.84569-0.24248-0.0858-0.14324-0.61621-0.14493-1.1936-0.004-0.57153,0.1397-0.97769,0.35674-0.90251,0.48231,0.0752,0.12558-0.24249,0.16495-0.70596,0.0875-0.46353-0.0774-0.95488-0.0463-1.0919,0.0692-0.1371,0.11549-0.70431,0.13397-1.2605,0.041-0.55621-0.0929-0.94395-0.0565-0.86171,0.0808,0.17446,0.2913-1.1248,0.34819-3.2809,0.14365-0.83773-0.0794-1.6186-0.0718-1.7353,0.0171-0.3856,0.29373-1.3538,0.27653-1.6547-0.0294-0.19711-0.20041-0.63405-0.1322-1.3086,0.20413-0.65243,0.32532-1.2385,0.42171-1.6474,0.27093-0.34918-0.1287-0.57508-0.1342-0.50197-0.0122,0.16864,0.28171-0.70065,0.63219-1.5365,0.61947-0.35202-0.005-1.3328,0.053-2.1795,0.12963-0.84671,0.0767-1.9754,0.0665-2.5083-0.0225-0.53285-0.089-0.98556-0.062-1.0059,0.06-0.0204,0.12201-0.80797,0.17089-1.7502,0.10861-0.94229-0.0622-1.8268-0.0175-1.9657,0.0995-0.15915,0.13413-0.33292,0.0784-0.47011-0.15063-0.27282-0.45561-2.0331-0.25492-2.0726,0.23624-0.0203,0.25082,0.0203,0.25839,0.19667,0.0369,0.12216-0.15345,0.35043-0.19356,0.50729-0.0891,0.56287,0.37479,0.20549,0.54837-0.88068,0.42772-2.2167-0.24622-2.4833-0.24062-3.1821,0.0668-0.39114,0.17207-0.80951,0.24735-0.92975,0.16726-0.12027-0.08-0.53292-0.0355-0.91696,0.0991-0.38408,0.13461-1.0312,0.19271-1.4382,0.12912-0.40684-0.0639-0.84288-0.0288-0.9688,0.0773-0.12588,0.10613-1.67,0.19356-3.4312,0.1943-2.767,0.001-4.4446,0.10491-7.7869,0.48153-0.38846,0.0438-1.2366,0.0579-1.8847,0.0314-0.6482-0.0265-2.0227,0.0927-3.0546,0.26496-1.0319,0.17223-2.2344,0.25328-2.6723,0.18013-0.43792-0.0732-1.0235-0.0294-1.3013,0.0971-0.38911,0.17735-0.43968,0.16989-0.22021-0.0327,0.15665-0.14449-0.48732-0.11944-1.4311,0.0557-0.94372,0.17513-1.9458,0.3172-2.2269,0.3157-0.28104-0.002-0.70669,0.0852-0.94588,0.19275-0.23921,0.10752-1.3475,0.18649-2.463,0.17548-1.1155-0.011-3.2757,0.0497-4.8004,0.13501-1.5248,0.0853-2.9591,0.0677-3.1874-0.0391-0.22832-0.10668-0.52938-0.0976-0.66889,0.0197-0.35466,0.29889-1.704,0.42895-4.7312,0.45606-1.4314,0.0128-4.5642,0.0985-6.9616,0.1904-2.3975,0.0919-5.0034,0.17348-5.791,0.18127-0.78754,0.008-2.2665,0.32709-3.2866,0.70957-1.0201,0.38246-2.149,0.64622-2.5087,0.58613-0.35969-0.0601-0.78156-0.0456-0.93748,0.0321-0.54615,0.27232-7.7996-1.0883-8.6728-1.6268zm28.2-17.24c-0.27791-0.22752-0.72952-0.96071-1.0036-1.6293-0.2741-0.66861-0.82449-1.6602-1.2231-2.2034-0.39861-0.54329-0.71175-1.0655-0.69589-1.1604,0.0159-0.0949-0.45824-0.91397-1.0535-1.8201-0.59527-0.90618-0.99574-1.7206-0.88988-1.8097,0.10584-0.0892,0.0318-0.18899-0.16457-0.2218-0.19631-0.0328-0.33683-0.18033-0.31218-0.32785,0.0247-0.14753-0.2186-0.64514-0.54053-1.1058-0.32199-0.46069-0.46926-0.98991-0.32723-1.1761,0.14199-0.18616,0.11136-0.29997-0.0682-0.25294-0.17949,0.0471-0.62193-0.46824-0.98327-1.1451-0.44066-0.82544-0.52283-1.2473-0.24959-1.2812,0.22411-0.0279,0.12724-0.10634-0.21531-0.1745-0.37924-0.0754-0.53286-0.24169-0.39291-0.42516,0.12643-0.16568-0.0872-0.67494-0.47469-1.1317-0.38749-0.45672-0.63235-0.93684-0.54413-1.067,0.0882-0.13009-0.0519-0.46761-0.31142-0.75004-0.25951-0.28242-0.59656-0.96399-0.74908-1.5146-0.1525-0.55061-0.36681-1.2425-0.47625-1.5376-1.5542-4.19-1.9104-5.2387-1.8735-5.5153,0.0249-0.17944-0.14343-0.57759-0.37195-0.88443-0.22856-0.30684-0.39123-0.70328-0.36154-0.88099,0.0297-0.17768-0.15627-0.83823-0.41329-1.4679-0.25699-0.62964-0.75648-2.0424-1.1099-3.1395-0.3535-1.0971-0.71457-2.0633-0.80239-2.1472-0.35757-0.34151-0.86005-1.6407-0.94897-2.4538-0.0523-0.47839-0.30236-0.90083-0.55849-0.94363-0.67319-0.11247-0.88011,0.36518-0.37889,0.87474,0.28677,0.29156,0.37072,1.2264,0.24935,2.776-0.23262,2.9696-0.2324,3.8228,0.001,5.2611,0.10408,0.64019,0.0304,2.4415-0.16369,4.003-0.23623,1.8999-0.22339,3.187,0.0389,3.8911,0.52002,1.3962,0.1522,1.5571-3.3358,1.459-1.516-0.0427-3.4217-0.0748-4.2349-0.0714-1.8691,0.008-3.373-0.24088-4.1112-0.67978-0.70108-0.41667-1.9975-2.6449-1.8976-3.2615,0.041-0.24531-0.15747-0.80355-0.43824-1.24l-0.5105-0.79367-0.41529,1.1423c-0.22845,0.62823-0.51468,1.3521-0.63614,1.6086-0.34462,0.72803-1.4138,3.1931-1.781,4.1062-0.18256,0.4539-0.50071,1.1934-0.70705,1.6434-0.20633,0.44992-0.48738,1.575-0.62451,2.5002-0.28352,1.9142-0.058,1.8114-4.0697,1.8513-1.2963,0.0129-2.5259-0.0936-2.7324-0.23654-0.38119-0.26391-0.54736-0.31107-2.4491-0.69498-0.58882-0.11886-1.4486-0.55027-1.9106-0.95864-0.74623-0.65973-0.78342-0.79918-0.33361-1.251,0.45064-0.4527,3.124-5.9869,4.0894-8.4657,2.7363-7.0256,3.0411-7.9858,5.6133-17.684,1.1341-4.2758,1.894-8.1997,1.9585-10.113,0.0375-1.1114,0.0574-1.129,1.8565-1.639,1.0002-0.28349,1.9846-0.57608,2.1876-0.65021,0.20293-0.0741,1.5493-0.21958,2.992-0.32328l2.623-0.18854,0.0684-1.0277c0.061-0.91657,0.20439-1.0758,1.3254-1.4728,0.69142-0.2448,1.412-0.41924,1.6012-0.38763,0.18925,0.0316,0.73854-0.0778,1.2207-0.24308,1.2994-0.44559,4.6911-0.61593,5.5113-0.2768,0.75953,0.31406,2.1895,1.6454,2.1327,1.9855-0.0191,0.11412,0.16772,0.30211,0.41503,0.41775,0.24738,0.11565,0.55817,0.66096,0.69073,1.2118,0.13251,0.55084,0.7508,2.1625,1.3739,3.5814,1.764,4.017,2.0342,4.6562,2.5726,6.0867,0.27676,0.73547,0.62964,1.4214,0.78418,1.5243,0.15454,0.10287,0.28242,0.60345,0.28426,1.1124,0.002,0.50891,0.33244,1.3633,0.7347,1.8987,0.40225,0.5354,0.68448,1.2542,0.62714,1.5974-0.0573,0.34315,0.0944,0.7168,0.33727,0.83033,0.24277,0.11356,0.49213,0.64856,0.55407,1.189,0.0619,0.5404,0.12237,1.0408,0.13429,1.112,0.0118,0.0711,0.29082,0.57075,0.6197,1.1101,0.32891,0.53937,0.56001,1.2115,0.51359,1.4937-0.0466,0.28216,0.18515,0.76272,0.51463,1.0678,0.38996,0.36112,0.47421,0.63192,0.24127,0.77578-0.23028,0.14227-0.16486,0.4758,0.1836,0.93613,0.29777,0.39331,0.51543,0.89156,0.4836,1.1072-0.031,0.21575,0.14154,0.81078,0.38509,1.3225,0.24361,0.51178,0.42415,1.0972,0.4013,1.301-0.023,0.20377,0.0908,0.61911,0.25274,0.92297,0.1619,0.30385,0.27176,0.60531,0.24415,0.66989-0.0276,0.0646,0.14733,0.43354,0.38872,0.81988,0.24141,0.38633,0.52798,1.1854,0.63682,1.7757,0.10879,0.59026,0.40152,1.2475,0.65036,1.4606,0.24892,0.21307,0.41675,0.62232,0.37303,0.90947-0.0429,0.28728,0.17109,0.84707,0.47742,1.2442,0.30626,0.39718,0.53085,0.89894,0.49895,1.115-0.0687,0.46583,1.9891,4.795,2.8898,6.0796,0.34632,0.49396,0.84543,1.331,1.1091,1.86,0.64063,1.2854,2.754,4.0849,4.398,5.8258,0.73349,0.77677,1.2266,1.4657,1.0957,1.531-0.13082,0.0652,0.018,0.39719,0.33078,0.73762,0.31281,0.34042,0.54457,0.76343,0.51507,0.94-0.0295,0.17658,0.098,0.3464,0.28346,0.37738,0.60059,0.10035,0.197,1.014-0.51326,1.1618-0.37924,0.0789-1.2687,0.11414-1.9766,0.0783-0.70791-0.0359-1.6987-0.0119-2.2018,0.0532-0.50316,0.0651-1.2995,0.0877-1.7696,0.0501-1.0858-0.0868-2.6733-0.14996-3.7863-0.15061-0.4855-0.00032-1.0882-0.18221-1.3714-0.41418zm34.211-1.715c-0.28086-0.31489-0.46036-0.87388-0.39883-1.2422,0.16736-1.0017-0.90458-3.1421-3.2468-6.483-1.154-1.646-2.5144-3.7478-3.0231-4.6705-0.50869-0.92276-1.2575-1.9966-1.664-2.3863-0.72821-0.69807-0.76147-0.70597-2.2383-0.53201-0.82453,0.0971-1.9461,0.32058-2.4923,0.4966-0.54623,0.176-1.1358,0.29617-1.3102,0.26704-0.17437-0.0291-0.63222,0.1236-1.0174,0.33941-1.3141,0.73633-5.5715,1.2727-8.1329,1.0247-4.5248-0.43816-5.5826-0.67909-6.5617-1.4944-0.66997-0.55792-0.73174-0.76942-0.41071-1.4067,0.54442-1.0807,1.6452-1.6284,3.1244-1.5545,0.70953,0.0355,1.3028-0.012,1.3184-0.1054,0.0349-0.20866,2.6834-0.61164,5.5107-0.83848,1.159-0.093,2.5192-0.30153,3.0226-0.46346,0.50347-0.16191,1.6328-0.38881,2.5097-0.50419,2.2798-0.30001,3.1764-0.75014,2.7473-1.3792-0.18497-0.27118-0.53367-0.92238-0.77481-1.4471-0.24119-0.52471-0.51305-1.0231-0.60414-1.1075-0.24423-0.2263-0.68927-1.0387-1.745-3.1854-0.51909-1.0555-1.1261-2.1108-1.3489-2.345-0.34794-0.3658-0.47092-0.33871-0.87278,0.19231-0.25727,0.33996-0.56398,1.0727-0.68157,1.6283-0.11746,0.55562-0.37085,1.1698-0.56283,1.3649-0.19192,0.1951-0.48967,0.75935-0.66168,1.2539-0.18844,0.54164-0.67661,1.0648-1.2278,1.3157-1.2429,0.5657-5.3983,0.50096-7.0649-0.11008-3.2512-1.192-3.8731-1.8604-2.9613-3.183,0.31461-0.45643,0.60714-0.93724,0.65004-1.0685,0.0429-0.13122,0.20092-0.38794,0.35117-0.57043,0.64162-0.77902,3.041-6.1909,3.8549-8.6945,1.2344-3.7975,2.6986-12.551,2.2422-13.39-0.5983-1.0948,0.0886-1.9194,1.7847-2.1423,0.81809-0.10755,2.0125-0.2696,2.654-0.36016,0.64158-0.0906,1.5099-0.15506,1.9297-0.14336,0.4197,0.0117,1.1837-0.0318,1.6978-0.0967,1.4988-0.18914,3.3505,1.0042,3.6619,2.3599,0.13308,0.57953,0.4073,1.2279,0.60935,1.4409,0.20211,0.21294,0.34432,0.66641,0.31609,1.0077-0.0987,1.1949,0.0458,2.9055,0.28616,3.3873,0.13342,0.26735,0.1508,0.56344,0.0386,0.65798-0.11222,0.0945,0.0387,0.995,0.3353,2.001,0.29661,1.006,0.49298,2.1261,0.43637,2.4891-0.0556,0.36314,0.0374,0.75338,0.20882,0.86756,0.17151,0.11423,0.27333,0.43801,0.22628,0.7196-0.0471,0.28158,0.18326,1.1344,0.51182,1.895,0.32858,0.76071,0.87735,2.2225,1.2195,3.2485,0.92148,2.7629,2.5629,6.2293,4.0438,8.5394,1.5083,2.353,1.9296,2.5286,4.9027,2.0439,0.99906-0.16287,3.0893-0.4485,4.645-0.63472s3.308-0.40898,3.8941-0.49498c0.58606-0.086,1.945-0.28719,3.0198-0.44705,1.0748-0.15985,2.8737-0.33847,3.9974-0.39694,2.2084-0.11489,4.1429-0.65419,3.0544-0.85153-0.32378-0.0581-0.57266-0.20175-0.55325-0.31793,0.0194-0.11616-1.0778-0.5339-2.4382-0.9283-1.3604-0.39439-2.5338-0.81783-2.6075-0.94095-0.0738-0.12316-0.59507-0.37146-1.1585-0.55182-1.1952-0.38259-4.8748-2.3397-6.1023-3.2458-0.89782-0.66266-0.98275-1.5204-0.22348-2.2568,0.73952-0.71735,5.219-1.6066,7.9043-1.5692,1.3756,0.0192,2.7892,0.15406,3.1415,0.29972,0.59722,0.24696,0.63795,0.18182,0.60378-0.96391-0.0202-0.67581-0.26484-1.7479-0.5437-2.3824-0.27892-0.63452-0.51549-1.2968-0.52578-1.4719-0.0102-0.17501-0.17212-0.85342-0.35973-1.5076-0.18763-0.65415-0.5564-2.018-0.81951-3.0308-0.26306-1.0128-0.6466-2.1203-0.85229-2.4612-0.20574-0.3409-0.35591-0.7282-0.33379-0.86064,0.0626-0.37447-1.1929-1.588-2.1462-2.0746-0.47316-0.2415-1.2189-0.44372-1.6574-0.44939-1.601-0.0207-9.3015-1.1804-10.545-1.588-1.6441-0.53909-2.2094-1.3293-1.4871-2.0786,0.28521-0.29582,0.82128-0.52982,1.1913-0.51998,0.36994,0.01,0.85862-0.11391,1.086-0.27499,0.43704-0.30966,2.3785-0.41697,4.3709-0.24163,0.65735,0.0578,2.7324,0.23683,4.6112,0.39771,1.8907,0.1619,5.6642,0.72746,8.4507,1.2666,5.0782,0.98247,6.2209,1.2648,6.8713,1.6979,0.32416,0.21588,2.5648,0.99123,6.0107,2.08,3.3772,1.0671,10.802,4.5013,13.895,6.4267,7.0616,4.3962,11.117,7.9735,11.593,10.227,0.13268,0.62784,0.34982,1.2672,0.48258,1.4209,0.53278,0.61663,0.001,1.2222-1.7782,2.0256-1.0279,0.46406-2.3114,0.93101-2.8521,1.0377-1.2521,0.24703-5.3688,0.42676-7.6028,0.33193-0.94617-0.0402-3.04-0.10645-4.653-0.1473-1.613-0.0408-3.469-0.13121-4.1244-0.20079-0.65539-0.0696-1.4498-0.095-1.7653-0.0565-0.31559,0.0385-0.93052-0.0137-1.3666-0.11613-1.4986-0.35191-1.9844-0.31239-2.0647,0.16802-0.13275,0.79457-0.49258,0.66479,10.458,3.7713,3.011,0.85419,10.532,3.6182,13.221,4.8587,2.3665,1.0917,5.3104,2.6928,5.5553,3.0213,0.0794,0.10645,0.91935,0.73344,1.8666,1.3932,1.6576,1.1547,2.8466,2.2731,3.6981,3.4788,0.2215,0.31359,0.53135,0.50603,0.68859,0.42764,0.29982-0.14952,0.58714-5.602,0.41066-7.7928-0.18273-2.2686-0.31493-5.0648-0.27863-5.8938,0.0195-0.44466-0.0748-1.706-0.20941-2.803-0.13469-1.097-0.29076-2.5118-0.34683-3.144-0.17657-1.9906-0.80222-4.8241-2.0481-9.2754-1.0159-3.6298-0.88985-5.2275,0.47059-5.964,1.0296-0.55745,3.6078-1.1491,3.8655-0.88711,0.0871,0.0886,0.50107,0.0868,0.92011-0.005,1.1515-0.25109,2.0603-0.14923,2.8497,0.31939,0.81612,0.4845,1.9341,2.8249,1.9546,4.092,0.0157,0.97079,0.25692,1.9792,0.82417,3.4457,0.2146,0.55486,0.28203,0.99077,0.14973,0.96867-0.13226-0.0221-0.0805,0.12244,0.11497,0.32118,0.19548,0.19874,0.32167,0.56318,0.28045,0.80987-0.0412,0.24668,0.0894,0.8896,0.29016,1.4287,0.34429,0.92444,0.3951,0.95753,0.89299,0.58149,0.29039-0.21929,0.78078-0.77903,1.0897-1.2439,0.30898-0.46484,1.1837-1.5077,1.9437-2.3175,0.76005-0.80976,1.721-1.8686,2.1353-2.353,2.2444-2.6238,2.8866-3.1665,3.6048-3.0465,0.39779,0.0665,1.3166-0.003,2.0418-0.15423,1.7633-0.36784,6.0352,0.16335,6.3906,0.79464,0.13369,0.2374,0.26495,0.32872,0.29179,0.20294,0.11616-0.54415,0.87009,0.9513,0.78039,1.5477-0.0556,0.36315,0.0255,0.74364,0.17792,0.84518,0.15251,0.10153,0.32565,0.47116,0.38474,0.82138,0.0852,0.50482-0.20942,0.80802-1.4219,1.4634-0.84115,0.45465-2.1132,1.4651-2.8266,2.2456-0.71353,0.7804-1.4899,1.6028-1.7254,1.8275-0.23545,0.22474-0.80936,1.0348-1.2754,1.8-0.46607,0.76529-1.3577,2.0988-1.9813,2.9635-1.5606,2.1637-2.9317,4.7743-2.7673,5.2692,0.12082,0.3639,3.6809,2.448,7.33,4.291,0.70297,0.35504,1.6548,0.86817,2.1151,1.1403,0.46036,0.27214,1.0038,0.52265,1.2077,0.55672,0.20381,0.0341,1.7196,0.79687,3.3682,1.6952,1.6488,0.89827,3.1081,1.6517,3.2432,1.6742,0.43704,0.073,4.4073,2.3342,4.8115,2.7402,0.21562,0.21665,0.50932,0.41351,0.65262,0.43745,0.14334,0.024,0.65531,0.39244,1.1378,0.81889,0.48246,0.42644,0.98336,0.79322,1.1131,0.81507,0.43847,0.0736,3.0525,2.0539,3.0142,2.2832-0.0209,0.12511,0.18494,0.26471,0.45738,0.31023,0.63621,0.10629,2.5601,1.2925,3.4051,2.0994,0.36006,0.34387,1.1183,0.87764,1.6849,1.1862,1.3963,0.76023,2.7998,2.4379,2.6733,3.1954-0.0569,0.34078,0.0232,0.8695,0.1782,1.175,0.15501,0.30546,0.19644,0.59794,0.0921,0.64997-0.5991,0.29872-3.345,0.0111-6.8981-0.72265l-4.0515-0.83665-2.0408-1.9448c-1.1224-1.0696-2.1315-1.9599-2.2424-1.9784-0.11084-0.0185-0.67672-0.4354-1.2574-0.92639-1.1234-0.94974-2.6638-2.0173-4.9617-3.4388-0.77723-0.4808-2.3007-1.429-3.3855-2.107-2.5857-1.6163-7.9822-4.5285-9.9207-5.3537-0.44478-0.18935-1.9658-0.88468-3.38-1.5452-3.1104-1.4527-3.7108-1.5851-3.8688-0.85333-0.0649,0.30055-0.20403,0.90013-0.3092,1.3324-0.10526,0.43223-0.0869,0.80333,0.0409,0.82466,0.12771,0.0213,0.24217,0.57833,0.25438,1.2378,0.0122,0.65945,0.10882,1.5645,0.21464,2.0112,0.39511,1.6677,0.50626,4.0306,0.35538,7.5568l-0.0951,2.2222-1.1008,0.28868c-0.6153,0.16137-1.4136,0.17869-1.8101,0.0393-0.39008-0.13716-0.78026-0.14466-0.86701-0.0167-0.18771,0.27677-6.6455-1.2768-7.073-1.7016-0.14891-0.14797-0.43738-0.83915-0.64103-1.536-0.28758-0.98399-0.51684-1.274-1.0266-1.2988-0.36092-0.0175-1.5749-0.13285-2.6976-0.25636-1.1228-0.12352-3.2593-0.26094-4.7477-0.30541-2.4818-0.0741-2.7805-0.12855-3.6024-0.65632-0.52835-0.33926-0.93586-0.8835-0.99287-1.326-0.2131-1.654-3.9227-4.7417-7.7364-6.4394-3.916-1.7432-11.989-4.501-12.893-4.4045-0.46296,0.0494-0.49106,0.21664-0.24073,1.4409,0.15493,0.76163,0.34195,1.5647,0.41561,1.7846,0.0737,0.2199,0.15357,0.59466,0.17752,0.83281,0.024,0.23813,0.17926,0.88688,0.34501,1.4416,0.61265,2.0502,1.4226,5.0298,1.9569,7.1988,0.30221,1.2269,0.64253,2.4728,0.75626,2.7686,0.31837,0.82805,0.53948,1.5664,0.58048,1.9387,0.0204,0.18593,0.46672,1.2796,0.99165,2.4304,0.52492,1.1508,0.95161,2.2665,0.94815,2.4794-0.004,0.21282,0.12816,0.65203,0.29254,0.97598,0.69675,1.3732,0.31323,1.5092-3.5257,1.25-1.2778-0.0863-2.9061-0.18244-3.6185-0.21363-0.71235-0.0312-1.9478-0.24017-2.7456-0.4638-1.5126-0.42517-1.9878-1.0195-2.0076-2.5103-0.004-0.33605-0.0681-0.79087-0.14149-1.0107-0.16849-0.50498-0.98251-4.2307-0.99861-4.5706-0.007-0.13949-0.0993-0.39755-0.20604-0.57345-0.10672-0.17589-0.19761-0.71632-0.20193-1.201-0.004-0.48461-0.19751-1.3501-0.42934-1.9233-0.23177-0.57318-0.57094-1.7466-0.75364-2.6075-0.18276-0.86095-0.65133-2.5538-1.0412-3.7619-0.38997-1.2081-0.71805-2.2821-0.72907-2.3866-0.0316-0.30047-0.19237-0.91637-0.44569-1.7081-0.18776-0.58692-0.44517-0.76639-1.3054-0.9101-0.58933-0.0985-1.233-0.0988-1.4304-0.00083-0.1974,0.098-1.9521,0.3813-3.8993,0.62957-1.9472,0.24825-4.5525,0.6117-5.7896,0.80765s-2.3189,0.34463-2.4039,0.33043c-0.16073-0.0268-5.2442,0.75622-6.1889,0.95335-0.62125,0.12962-1.1435,1.3445-0.61595,1.4327,0.19396,0.0324,0.59169,0.5235,0.8838,1.0913,0.29216,0.56781,1.1368,1.8303,1.8771,2.8056,1.2757,1.6806,1.9059,2.5985,4.0844,5.9488,0.51298,0.7889,1.2873,2.1839,1.7207,3.1001,0.43338,0.91616,0.91919,1.7531,1.0796,1.8599,0.16046,0.1068,0.3203,0.64729,0.35521,1.201,0.0724,1.1468-0.63734,1.8791-1.5678,1.6177-0.31852-0.0895-0.59827-0.0485-0.62158,0.0911-0.0248,0.1485-0.43177,0.12911-0.98112-0.0467-0.51634-0.16525-1.0953-0.22244-1.2866-0.12706-0.19135,0.0954-1.721,0.0157-3.3993-0.17708-2.7448-0.31533-3.1027-0.40808-3.5621-0.9231zm41.035-31.482c5.3918,0.0705,6.1904-0.79885,3.443-3.748-0.57304-0.61507-1.8002-1.6128-2.7271-2.2171-0.9269-0.60434-2.2589-1.5366-2.96-2.0718-3.1097-2.3737-9.5758-5.5242-11.022-5.37-0.70453,0.0751-0.68771,2.0204,0.0368,4.2602,0.2905,0.89793,0.61811,2.1006,0.72801,2.6725,0.25796,1.3421,1.179,4.3732,1.4812,4.8746,0.19075,0.31642,1.0891,0.49869,4.8489,0.98379,2.5382,0.32745,5.3149,0.60457,6.1706,0.61574zm-73.443-25.324c-0.72766-2.2078-0.85586-4.2965-0.50018-8.1498,0.0692-0.74966,0.0539-1.5732-0.034-1.8301-0.0996-0.29094-0.004-0.44098,0.25456-0.39786,0.2893,0.0483,0.32656-0.0404,0.12342-0.29392-0.16011-0.19975-0.2422-1.1477-0.18247-2.1065,0.0597-0.95885,0.0443-2.0089-0.0342-2.3334-0.164-0.67757-1.2092-0.95336-2.3201-0.61216-0.39622,0.1217-1.3495,0.25343-2.1183,0.2927-0.76885,0.0393-1.7174,0.11691-2.1078,0.17253-1.679,0.23916-5.5044,0.68362-7.9504,0.92373-1.4531,0.14265-3.3628,0.37365-4.2436,0.51334-2.9386,0.46597-14.718,1.3609-15.717,1.1941-0.34912-0.0583-0.75134-0.048-0.89379,0.0231-0.4295,0.21418-2.781,0.34497-4.4236,0.24604-0.84901-0.0511-1.8265-0.0372-2.1722,0.0309-0.34566,0.0681-1.4304,0.0281-2.4106-0.089-0.98015-0.11702-2.7032-0.29853-3.8292-0.40326-2.653-0.24676-3.1446-0.46972-3.2317-1.4656-0.0607-0.69438,0.63261-1.5438,4.5059-5.5206,4.2408-4.3541,5.7707-6.1242,6.3175-7.3099,0.11858-0.25699,0.57045-1.0874,1.0043-1.8453,1.5393-2.6894,3.3109-6.2655,3.9146-7.9017,0.33671-0.91256,0.76835-1.9728,0.9592-2.3561,0.1909-0.38332,0.42862-0.96641,0.52837-1.2958,0.0997-0.32934,0.56473-1.7804,1.0333-3.2245,1.0575-3.2589,0.93026-2.6326,1.1868-5.8411,0.23776-2.9737-0.10739-8.0227-0.5623-8.2256-0.15605-0.0697-0.18153-0.26059-0.0566-0.42438,0.1249-0.16379,0.0775-0.39755-0.10595-0.51957-0.43165-0.28744-0.26475-1.2502,0.33361-1.9245,0.25902-0.29185,1.1397-0.66386,1.9572-0.82671,0.81745-0.16283,1.7289-0.3484,2.0255-0.41239,1.8082-0.39013,2.8233-0.51419,3.8908-0.47555,1.0131,0.0367,1.337,0.17593,2.0293,0.87277,1.2076,1.2153,2.2484,2.5406,2.2173,2.8234-0.0146,0.13596-0.0545,2.2242-0.088,4.6406-0.0608,4.3889,0.12268,6.8866,0.59873,8.1525,0.13884,0.36919,0.51989,1.6219,0.84675,2.7837,0.83513,2.9684,2.1084,5.8749,2.8068,6.4074,0.32576,0.24837,0.76033,1.1874,0.96567,2.0867,0.20536,0.89932,0.50104,1.6565,0.65711,1.6825,0.15603,0.0261,0.24725,0.26549,0.20271,0.53204-0.0532,0.31845-0.56896,0.57813-1.5041,0.75728-0.78276,0.14994-1.5374,0.23358-1.6769,0.18587-0.13953-0.0478-0.79811-0.0948-1.4634-0.1048-1.083-0.0161-2.0918-0.26342-6.3957-1.5676-1.1233-0.34039-1.2702-0.31869-1.7691,0.26137-0.29923,0.34792-0.65952,0.67156-0.80059,0.71921-0.36367,0.12284-0.35797,1.0333,0.008,1.315,0.18752,0.14424,0.13504,0.20895-0.13482,0.16621-0.24301-0.0386-0.36656,0.0558-0.27445,0.20964,0.0921,0.15378,0.01,0.25326-0.18296,0.22107-0.19274-0.0322-0.35266,0.28079-0.35537,0.69556-0.003,0.41474-0.14667,0.7304-0.32054,0.70135-0.17357-0.029-0.25467,0.18937-0.18024,0.48525,0.0744,0.29589-0.0648,0.66141-0.30888,0.81237-0.24434,0.15092-0.57631,0.65424-0.73781,1.1185-0.16142,0.46427-0.65241,1.1764-1.091,1.5825-0.4386,0.40612-0.77527,0.97464-0.74815,1.2634,0.0272,0.28874-0.0939,0.50106-0.26844,0.47189-0.17474-0.0292-0.36301,0.21798-0.41836,0.54928-0.0554,0.33129-0.32843,0.70697-0.60681,0.83483-0.27839,0.12787-0.47078,0.4267-0.42756,0.66408,0.0432,0.23736-0.40491,0.83036-0.99581,1.3178-0.5909,0.48737-1.3592,1.397-1.7073,2.0215l-0.633,1.1353,1.0768,0.0189c0.59218,0.0104,2.7068-0.0949,4.6992-0.23404,1.9924-0.13911,3.8375-0.21701,4.1002-0.17311,0.26272,0.0439,0.4961-0.0303,0.51859-0.165,0.0225-0.13464,0.27822-0.20515,0.56828-0.15669,0.29006,0.0485,1.3527-0.0121,2.3613-0.13458,6.4347-0.78139,14.641-1.6335,16.109-1.6728,0.87662-0.0234,2.7939-0.22138,4.7598-0.49139,0.58517-0.0804,1.4952-0.15198,2.0222-0.15913,0.52705-0.007,1.075-0.11129,1.2176-0.23144,0.28452-0.23976,0.68332-2.8167,0.71139-4.5964,0.01-0.62118,0.0941-2.1358,0.18742-3.3658,0.17521-2.3093,0.19221-3.148,0.0687-3.3857-0.0394-0.0757-0.0476-0.53011-0.0184-1.0096,0.0291-0.47955,0.049-1.5348,0.0438-2.3451-0.007-1.0893,0.11123-1.5049,0.45367-1.5946,0.28709-0.0753,0.37555-0.26631,0.23263-0.5026-0.12683-0.20967-0.23778-0.60889-0.24669-0.88719-0.009-0.27828-0.0822-0.68688-0.16305-0.90798-0.26981-0.73818-0.12722-2.6288,0.49818-6.6054,0.61972-3.9422,0.62045-3.9429,1.6945-4.67,0.59091-0.39998,1.0838-0.78399,1.0954-0.85336,0.06-0.35896,2.0009-1.1307,3.3761-1.3424,1.9539-0.30079,3.3203-0.10006,3.6414,0.5349,0.21584,0.42674,0.36868,3.2856,0.18309,3.4242-0.0402,0.0299,0.0442,0.41106,0.18712,0.84707,0.36615,1.1172,0.114,5.4883-0.37233,6.4537-0.24317,0.48264-0.28743,0.9271-0.11017,1.1073,0.41388,0.42081,0.36097,1.8066-0.0734,1.9204-0.19764,0.0518-0.26715,0.24331-0.15435,0.4256,0.11268,0.18227,0.10321,1.1298-0.0211,2.1055-0.1241,0.9758-0.10966,2.0034,0.0326,2.2838,0.14218,0.28031,0.11871,0.62747-0.0523,0.77147-0.17093,0.144-0.20298,0.86234-0.0714,1.5963,0.13167,0.73394,0.10754,1.3753-0.0537,1.4252-0.36453,0.11294-0.532,1.4096-0.26425,2.0458,0.1097,0.26053,0.087,0.62113-0.0505,0.80133-0.13748,0.18019-0.1159,0.41697,0.0482,0.52619,0.16405,0.10923,0.25327,0.46747,0.19836,0.79612-0.0549,0.32867,0.0143,0.61663,0.15373,0.63994,0.13941,0.0233,0.12263,0.82391-0.0374,1.7791-0.15996,0.95523-0.18427,1.8078-0.054,1.8947,0.45616,0.30402,7.2229,0.1956,7.4633-0.11959,0.19054-0.24975,0.0673-5.7878-0.17837-8.0143-0.0312-0.28201-0.0267-1.1306,0.01-1.8857,0.0562-1.1644,0.0811-6.5045,0.0491-10.561-0.005-0.62363,0.12861-2.4952,0.29666-4.159,0.27795-2.7518,0.37938-3.0872,1.1229-3.7128,1.0964-0.92251,2.8041-1.7067,3.6376-1.6704,0.37359,0.0163,1.1958-0.076,1.8273-0.20503,1.9885-0.40636,3.2,0.0501,3.3668,1.2685,0.0194,0.14164,0.068,0.37624,0.10811,0.52134,0.52302,1.8944,0.664,3.9634,0.53754,7.8907-0.0854,2.6522-0.0783,7.9063,0.0132,9.6904,0.0178,0.34898,0.005,1.4791-0.0297,2.5114-0.0342,1.0323,0.0152,2.0031,0.10983,2.1573,0.17182,0.28007,0.17226,2.8873,0.00073,4.8047-0.0502,0.55811-0.004,1.1604,0.10294,1.3383,0.12169,0.20324,1.2424,0.49874,3.0146,0.79482,2.6459,0.44207,2.8575,0.51848,3.4117,1.233,0.32501,0.41898,0.55629,0.96873,0.51402,1.2217-0.0423,0.25296,0.0713,0.70446,0.25239,1.0034,0.18103,0.29888,0.22566,0.59506,0.0991,0.65816-0.44851,0.22365-3.9766,0.20594-5.3888-0.0271-0.78828-0.12967-1.4705-0.12945-1.5161,0.001-0.0455,0.13081-0.11756,0.37355-0.15959,0.53954-0.11076,0.43656-0.20398,4.2161-0.11888,4.8242,0.11541,0.82458,0.1715,1.4811,0.20135,2.3575,0.0262,0.76951,0.91666,3.7136,1.5167,5.0144,0.39475,0.85583-0.1108,1.0982-1.697,0.81354-0.77072-0.13789-3.173-0.54483-5.3386-0.90341-2.1657-0.35779-4.1608-0.75642-4.4339-0.88404-0.27309-0.12775-0.51789-0.64942-0.54403-1.1594-0.0261-0.51001-0.13894-1.6786-0.25062-2.5969-0.11169-0.91829-0.22715-3.0325-0.25656-4.6982-0.0778-4.4051-0.0249-4.2041-1.1172-4.2454-6.2751-0.23741-8.4095,0.16968-7.2216,1.3774,0.20208,0.20548,0.13024,0.75969-0.20951,1.6144-0.2844,0.71585-0.4329,1.5685-0.32977,1.8949,0.10291,0.32631,0.0242,0.74474-0.17473,0.92987-0.20006,0.18592-0.29,0.67421-0.20075,1.0911,0.0887,0.41501,0.0507,0.89944-0.0843,1.0766-0.13511,0.1771-0.059,0.35318,0.16578,0.39074,0.26461,0.0442,0.31545,0.31984,0.14249,0.77258-0.14792,0.38712-0.14537,0.75659,0.006,0.82111,0.3154,0.13451,0.95519,2.9401,1.2686,5.5632,0.0507,0.42368,0.30981,1.3004,0.57592,1.9483,0.26612,0.64788,0.3808,1.2294,0.25485,1.2922-0.35031,0.17468-4.7842-0.22414-8.3145-0.74789-3.1097-0.46137-3.1646-0.48008-3.3852-1.1493zm103.65,4.9854c-0.074-0.0752-0.46806-0.20509-0.87572-0.28859-2.2797-0.46686-2.5764-0.5741-2.5202-0.91064,0.0921-0.55131,2.155-1.6342,3.6696-1.9264,0.74695-0.14411,2.1762-0.47109,3.176-0.72667,1.8606-0.47556,8.866-1.5864,9.7958-1.5533,0.28418,0.0102,0.6037-0.0359,0.71006-0.10228,0.88867-0.55448,20.318-2.2712,32.355-2.8589,1.441-0.0703,2.8578-0.15065,3.1483-0.17845,0.29052-0.0278,0.68515-0.0569,0.87704-0.0647,0.19183-0.008,1.3773-0.10395,2.6344-0.21372l2.2855-0.19961-1.661-0.42758c-1.7238-0.44374-10.458-1.818-15.193-2.3906-3.1672-0.38298-15.316-1.7385-18.538-2.0685-7.2102-0.73836-15.195-1.957-18.312-2.7948-1.0862-0.29191-2.2323-0.7876-2.6956-1.1658-0.72616-0.59272-0.76589-0.76158-0.40112-1.7043,0.46946-1.2133,3.5912-5.6726,4.855-6.9351,1.6738-1.6722,3.3464-3.2182,3.6774-3.3993,0.18414-0.10071,0.36877-0.38642,0.41029-0.6349,0.0415-0.24847,0.4669-0.64696,0.94528-0.88552,0.47839-0.23855,0.83791-0.55134,0.79898-0.69507-0.0391-0.14376,0.47895-0.83896,1.1509-1.5449,0.67198-0.70593,1.7381-1.8767,2.369-2.6017,0.63102-0.72498,1.5144-1.7098,1.9632-2.1884,0.44871-0.47863,1.9322-2.3257,3.2966-4.1046s2.7387-3.5309,3.0541-3.8935c0.31532-0.36251,1.0905-1.2522,1.7226-1.977,0.63204-0.72481,1.4048-1.9546,1.7174-2.7328,0.73112-1.8207,0.70597-1.6994,0.6399-3.081-0.0559-1.1685-0.0379-1.1897,1.3452-1.5872,2.0426-0.58716,7.9458-0.66675,8.9809-0.1211,0.43617,0.2299,0.77472,0.52764,0.75233,0.66162-0.0224,0.13399,0.25478,0.64338,0.61598,1.132,1.2444,1.6835,1.3897,3.728,0.34359,4.8344-1.5554,1.645-1.6225,2.1256-0.81861,5.8598,0.31778,1.476,0.60746,3.0151,0.6437,3.42,0.0916,1.0227,1.7209,4.7287,2.428,5.5228,0.35349,0.39698,0.56708,1.1422,0.54167,1.8897-0.0371,1.0906-0.14213,1.2627-0.90328,1.4792-1.1583,0.32941-5.3246,0.0971-6.978-0.38918-0.73398-0.21591-2.0188-0.78124-2.855-1.2564-1.214-0.68977-1.6152-1.1099-1.9906-2.0845-0.25858-0.67133-0.44403-1.3767-0.41215-1.5675,0.0319-0.1908-0.1696-0.38493-0.4477-0.4314-0.27806-0.0465-0.52684,0.0426-0.55279,0.19791-0.0259,0.15531-0.50446,0.78311-1.0634,1.3951-0.55891,0.61199-1.3281,1.4954-1.7094,1.9632-0.38994,0.47851-0.99938,0.85731-1.3933,0.86602-0.77054,0.0171-0.90469,0.19904-0.47139,0.63955,0.18216,0.18519,0.0747,0.47997-0.29821,0.81835-0.32054,0.29088-0.95505,0.93548-1.4099,1.4324-0.45486,0.49697-1.0036,0.94984-1.2194,1.0064-0.21582,0.0566-0.42177,0.27873-0.45768,0.49371-0.0359,0.21496-0.54745,0.71731-1.1368,1.1163-0.58933,0.39901-1.0511,0.87043-1.0261,1.0476,0.0249,0.17718-0.11297,0.29568-0.30643,0.26335-0.19354-0.0323-0.3938,0.19212-0.44503,0.49876-0.0512,0.30665-0.33681,0.74021-0.6346,0.96345-0.29784,0.22324-0.91399,1.0231-1.3692,1.7774-0.45526,0.75436-0.95832,1.463-1.118,1.5747-0.15961,0.11173-0.33227,0.5334-0.38368,0.93702-0.084,0.65987,0.0398,0.77291,1.2278,1.1208,0.72673,0.21277,1.554,0.39434,1.8383,0.40336,0.28437,0.009,2.6531,0.2965,5.2639,0.63882s5.9778,0.72097,7.4823,0.84142c1.5044,0.12045,8.2139,1.0245,14.91,2.0091,17.069,2.5097,21.108,3.0183,30.881,3.8881,3.5678,0.31752,7.735,0.57287,9.2605,0.56741,3.9778-0.0142,6.6512,0.42983,7.6891,1.2776,0.50433,0.41167,0.78115,0.90872,0.71767,1.2886-0.0568,0.34016,0.0785,1.0331,0.30066,1.5398,0.61238,1.3967,0.27484,1.5603-2.5987,1.2597-1.398-0.14618-2.9983-0.21794-3.5563-0.1593-0.55805,0.0586-1.6368,0.0975-2.3973,0.0864-0.76043-0.0111-2.4743-0.0187-3.8086-0.0169-1.3343,0.002-2.8544-0.0207-3.3781-0.0501-0.52358-0.0294-1.1188-0.01-1.3226,0.0438-0.20379,0.0534-1.6402,0.0402-3.192-0.0295-2.5322-0.11363-3.7062-0.1209-8.2913-0.0514-0.71643,0.0109-1.2931-0.0372-1.2815-0.10685,0.0116-0.0696-0.2029-0.0379-0.47673,0.0705-0.27387,0.10839-0.5742,0.11952-0.66746,0.0247-0.0933-0.0948-0.49356-0.10497-0.88964-0.0225-0.39613,0.0824-1.5661,0.0531-2.5999-0.0652-1.0339-0.11819-2.5696-0.0997-3.4127,0.0411-0.84312,0.14089-2.2873,0.20102-3.2093,0.13362-0.92199-0.0674-2.2302-0.0507-2.9071,0.0372-0.67691,0.0879-1.5577,0.10512-1.9573,0.0383-0.39957-0.0668-1.0506-0.0226-1.4466,0.0981-1.0357,0.31563-3.142,0.15846-3.5864-0.2676-0.28385-0.27215-0.42037-0.28886-0.58007-0.071-0.31159,0.42513-1.9054,0.65839-3.7417,0.54758-0.89613-0.0541-1.6432-0.0154-1.6602,0.0861-0.0503,0.30116-2.9051,0.80408-3.7567,0.6618-0.43276-0.0723-1.0338-0.008-1.3358,0.1423-0.30193,0.15056-0.60434,0.21745-0.67203,0.14862-0.26489-0.2693-3.8742-0.017-4.6265,0.32345-0.95101,0.4303-3.4541,0.81977-4.0853,0.63568-0.24675-0.0719-0.69659,0.053-0.99966,0.2777-0.30313,0.22469-1.0567,0.40274-1.6746,0.39563-0.61795-0.007-1.2889,0.044-1.4912,0.11355-0.20216,0.0696-0.8266,0.12959-1.3876,0.13339-0.56102,0.004-1.6115,0.22514-2.3344,0.49182-0.72288,0.2667-1.6685,0.5051-2.1014,0.52977-0.43293,0.0247-0.80305,0.14018-0.82251,0.25668-0.0195,0.1165-0.38886,0.22771-0.82087,0.24715-1.4918,0.0671-3.4444,0.39589-3.4761,0.5853-0.0175,0.1045-0.25459,0.0858-0.52697-0.0415-0.30811-0.14405-0.47839-0.10426-0.45068,0.10515,0.0317,0.23958-0.42614,0.2627-1.5873,0.0802-0.89762-0.14084-1.6924-0.31804-1.7664-0.39327zm-61.792-12.019c-0.98352-0.3148-1.2628-0.94695-1.1956-2.7064,0.0307-0.80448-0.00045-2.1515-0.0693-2.9934-0.0688-0.84192-0.12676-1.8708-0.12874-2.2863-0.002-0.41555-0.0626-0.93525-0.13475-1.1549-0.0721-0.21966-0.13321-1.1924-0.1358-2.1616-0.003-0.96924-0.0834-2.7946-0.17974-4.0563-0.0964-1.2617-0.19596-2.6372-0.22152-3.0567-0.0254-0.41945-0.0924-0.92638-0.14858-1.1265-0.10108-0.3599-0.50265-3.6804-0.59388-4.9111-0.27841-3.7548-1.1514-7.78-2.202-10.153-1.1085-2.5036-1.8741-3.4611-3.4993-4.3767-1.4709-0.82863-2.3923-2.0492-2.239-2.9663,0.12398-0.74204,3.3947-1.885,4.7473-1.659,0.20373,0.034,0.40107-0.12174,0.43856-0.34615,0.0375-0.2244,0.14999-0.32488,0.24982-0.22333,0.0999,0.10155,0.78118,0.11399,1.514,0.0277,1.6413-0.19334,3.7545,0.29185,4.8656,1.1171,0.45832,0.34041,0.98783,0.72937,1.1768,0.86437,0.54866,0.39206,6.9743,3.7849,7.8501,4.145,1.4003,0.57577,6.9879,3.8556,7.8682,4.6186,0.46752,0.40519,0.95836,0.7548,1.0907,0.77691,0.13236,0.0221,1.084,0.72448,2.1147,1.5608,1.0307,0.83636,2.2232,1.7633,2.6501,2.06,2.3668,1.6446,6.3832,6.2802,7.7248,8.9154,0.73831,1.4504,0.93295,2.2203,0.79798,3.1565-0.16069,1.1159-0.30788,1.2948-1.4869,1.8104-0.71958,0.31472-2.0115,0.58119-2.8709,0.59216-0.85938,0.011-2.034,0.0421-2.6102,0.0691-0.57621,0.0271-1.6674,0.0252-2.4247-0.004-0.75739-0.0293-1.6644,0.0347-2.0157,0.14227-0.57393,0.1758-0.51848,0.26405,0.54738,0.87142,0.65231,0.37169,1.3943,0.82867,1.649,1.0155,0.25464,0.18686,1.5371,0.91,2.85,1.607,2.2318,1.1849,5.7583,3.439,7.5134,4.8025,0.42169,0.32761,1.9413,1.4979,3.3769,2.6007,3.2143,2.4691,5.8024,4.6195,6.425,5.3384,0.25837,0.29828,0.64159,0.57106,0.8516,0.60614,0.20997,0.0351,0.35025,0.25668,0.31164,0.49244-0.0389,0.23571,0.19653,0.98894,0.52253,1.6738,0.32601,0.68481,0.51246,1.3635,0.41435,1.5082-0.24021,0.35424-1.6035,0.26572-6.4629-0.41964-4.6514-0.65602-4.4554-0.56677-7.3274-3.3371-0.95449-0.92069-2.077-1.8762-2.4946-2.1234-0.41752-0.24718-0.74133-0.55607-0.71955-0.68642,0.0218-0.13033-0.17527-0.27288-0.43794-0.31677-0.26267-0.0439-0.51428-0.17088-0.55923-0.28215-0.11048-0.27376-3.633-3.0512-4.5746-3.607-0.4148-0.24487-1.3139-0.82853-1.9979-1.297-0.68397-0.46846-1.3176-0.87604-1.4079-0.90569-0.0904-0.0297-2.2517-1.217-4.8032-2.6385s-4.8738-2.5595-5.1609-2.5289c-0.4571,0.0487-0.48322,0.19165-0.21053,1.1496,0.17136,0.60168,0.22195,1.4815,0.11243,1.9552-0.10965,0.47366-0.18113,0.92087-0.15795,0.99394,0.022,0.0728,0.0521,0.36101,0.0665,0.64022,0.0145,0.27922,0.326,2.0865,0.69225,4.0161,0.36628,1.9296,0.69866,3.717,0.73863,3.9718,0.0481,0.30669-0.20116,0.49199-0.7371,0.54784-0.90747,0.0946-8.8013-0.95465-9.9512-1.3227zm20.351-19.592c0.64792-0.54594-0.15538-1.7753-2.9949-4.5835-3.4994-3.4607-10.153-8.3417-10.878-7.9801-0.14449,0.0721-0.11657,0.69765,0.0591,1.3898,0.17692,0.69235,0.50164,2.1948,0.72149,3.3387,0.76192,3.9636,0.6515,3.7576,2.1487,4.0078,0.82317,0.13753,2.2246,0.70727,3.6696,1.4919,3.3039,1.794,6.6438,2.8662,7.2738,2.3353zm21.184,18.569c-0.77142-0.7458-1.003-1.2495-1.024-2.2266-0.0149-0.69451-0.11424-1.5604-0.22082-1.9242-0.34705-1.185-1.1971-5.0605-1.5756-7.1834-0.20349-1.1412-0.45848-2.3162-0.56665-2.6111-0.10813-0.29488-0.40196-1.4197-0.65291-2.4997s-0.57829-2.2446-0.72747-2.5881c-0.14912-0.34349-0.18784-1.026-0.0861-1.5167,0.20253-0.97616,1.3611-1.593,3.3382-1.7772,0.58308-0.0543,1.541-0.17684,2.1286-0.27221,2.9744-0.48276,4.5802,0.18367,5.4162,2.2478,1.2315,3.0405,1.4056,3.5839,1.3198,4.1193-0.0936,0.59079,0.37444,2.8416,0.70636,3.3897,0.11326,0.18704,0.2135,0.56781,0.22274,0.84616,0.009,0.27835,0.18576,1.2704,0.39223,2.2045,0.20653,0.93413,0.56446,2.5793,0.79546,3.6559,0.23101,1.0766,0.69726,2.5639,1.0361,3.3051,0.33886,0.74121,0.59206,1.4912,0.56274,1.6668-0.0293,0.17553,0.10792,0.34609,0.30495,0.37901,0.19706,0.0329,0.29093,0.24677,0.20862,0.47522-0.0824,0.22845,0.003,0.75651,0.19012,1.1734,0.54616,1.2187-0.15329,1.3434-4.4673,0.79688-2.0528-0.26015-4.3111-0.52328-5.0184-0.58486-1.0785-0.0939-1.4469-0.26749-2.2829-1.0758zm-7.4558-32.371c-0.72827-0.2036-2.1999-0.8299-3.2703-1.3918-2.5848-1.3568-3.2361-2.6247-2.9298-5.7032,0.32504-3.267,1.8244-5.369,5.0831-7.1266,1.4094-0.76012,3.9312-1.4082,4.8695-1.2514,0.3732,0.0623,0.79251,0.0173,0.93182-0.10006,0.13932-0.11738,0.39003-0.12236,0.5572-0.0111,0.16715,0.11137,0.53367,0.11147,0.81452,0.00026,0.28086-0.11115,1.499-0.23814,2.7071-0.2822,1.9915-0.0726,2.3718-0.0168,4.0754,0.59828,1.6394,0.59194,2.1582,0.96232,4.0697,2.9058,2.7005,2.7455,3.8387,4.8682,3.7556,7.0035-0.0491,1.26-0.22812,1.7403-0.93842,2.5184-0.48279,0.52875-1.0123,0.93891-1.1766,0.91145-0.16432-0.0275-0.43623,0.20267-0.60422,0.51138-0.16798,0.30872-0.62022,0.58054-1.0051,0.60404-0.38481,0.0235-0.88069,0.21832-1.1019,0.43293-0.53677,0.52071-4.2179,1.5773-5.9956,1.7208-1.4987,0.12105-7.5739-0.70641-9.842-1.3405zm8.8848-3.1328c1.5028-0.74945,1.6685-0.93085,1.8435-2.0197,0.21781-1.3582-0.44121-3.2198-1.5343-4.3311-0.64437-0.65512-0.85422-0.73329-1.6408-0.61119-1.2734,0.1977-2.1902,1.467-2.7816,3.8511-0.43739,1.7634-0.43286,2.1411,0.0318,2.6711,1.1795,1.3451,2.0731,1.4414,4.0814,0.43987z"
       style="fill:#ffffff" />
  </g>
</svg>
