<?xml version="1.0" encoding="UTF-8" standalone="no"?>
<!-- Created with Inkscape (http://www.inkscape.org/) -->
<svg id="post-svg" viewBox="0 0 50 50">
 <g id="post-svg-layer" transform="translate(0,-1002.3622)">
  <path id="path3050" fill="#000" d="m10.285,1053.2c-0.0041-0.017,0.06075-0.067,0.14382-0.1111,0.08308-0.044,0.15879-0.048,0.16846-0.01,0.0097,0.041-0.05523,0.09-0.14382,0.1111-0.0886,0.021-0.16432,0.024-0.16846,0.01zm0.3524-0.5716c0.04151-0.068,0.10075-0.1081,0.1313-0.09,0.03079,0.019-0.0033,0.075-0.07567,0.1235-0.10443,0.071-0.11599,0.063-0.05568-0.034zm35.546-8.3529c-0.11182-0.069-1.3399,0.1266-3.3923,0.5404-0.75909,0.1529-1.4962,0.2728-1.6383,0.2656-0.14188-0.01-0.39423,0-0.56067,0.01-0.38864,0.026-0.57957-0.1107-0.83518-0.5982-0.36713-0.7003-0.63425-0.6687-0.67228,0.079-0.02109,0.4163-0.05576,0.49-0.32944,0.7001-0.26278,0.2019-0.459,0.2672-1.3935,0.4637-1.3063,0.2742-1.4966,0.2356-1.8043-0.3737-0.18385-0.3639-0.70789-0.832-0.8846-0.7902-0.0467,0.011-0.26865,0.3231-0.49324,0.6934-0.48964,0.8074-0.68275,0.9403-1.8695,1.2858-1.0309,0.2994-1.7144,0.3142-2.0551,0.043-0.11292-0.09-0.26138-0.15-0.32992-0.1338-0.06854,0.016-0.15576,0-0.1935-0.039-0.15064-0.1506-0.29038,0-0.33948,0.3717-0.09975,0.7486-0.18598,0.8119-1.6075,1.1795-0.81353,0.2109-1.2848,0.2937-1.3531,0.2564-0.05878-0.036-0.26188-0.029-0.45135,0.015-0.37036,0.088-0.55788-0.017-0.76867-0.4285-0.05718-0.1116-0.18258-0.2463-0.27866-0.2992-0.16098-0.089-0.19468-0.08-0.42898,0.1118-0.14205,0.1138-0.27236,0.3126-0.29422,0.4476-0.04397,0.272-0.28498,0.6762-0.40117,0.6728-0.04183,0-0.41347,0.1081-0.82672,0.2398-0.81906,0.2647-1.8798,0.3564-2.1551,0.1862-0.07978-0.049-0.19811-0.2734-0.26447-0.5012-0.14696-0.5047-0.24193-0.5711-0.59343-0.415-0.38763,0.1718-0.47594,0.3621-0.37372,0.8035,0.12056,0.5208-0.01501,0.797-0.4638,0.9444-1.9263,0.6328-1.9926,0.6403-2.229,0.2557-0.1683-0.2739-0.84933-0.7721-1.005-0.7353-0.10772,0.025-0.54664,0.8552-0.61724,1.1668-0.05812,0.2564-0.408,0.5716-0.85653,0.7715-0.16899,0.075-1.1011,0.3181-2.0713,0.5404-1.751,0.3999-1.7668,0.4026-2.1101,0.2678-0.19026-0.075-0.44086-0.1132-0.55691-0.086-0.11604,0.027-0.33812-0.014-0.49332-0.092-0.26398-0.1332-0.29857-0.1927-0.53184-0.9162-0.29351-0.9101-0.64636-2.2696-0.68448-2.6371-0.04468-0.431,0.33377-0.9954,0.86044-1.2831,0.24853-0.1359,0.52211-0.2738,0.60785-0.3068,0.19164-0.074,0.36408-0.7621,0.28248-1.1279-0.07874-0.353-0.28631-0.6005-0.5469-0.652-0.11946-0.023-0.47036,0.017-0.77948,0.09-0.52459,0.1242-0.57032,0.1206-0.68557-0.049-0.2183-0.3221-0.635-1.5231-0.8687-2.5039-0.28614-1.2007-0.26658-1.2477,0.63839-1.5375,0.72299-0.2317,0.82406-0.3005,0.90896-0.6208,0.05445-0.2054,0.04013-0.2479-0.1208-0.3587-0.10549-0.073-0.38875-0.1178-0.67085-0.1072-0.26857,0.01-0.61571-0.023-0.77153-0.073-0.28091-0.091-0.28494-0.098-0.47613-0.8344-0.21229-0.8173-0.24931-0.9811-0.39715-1.7573-0.14522-0.7623-0.10647-0.8638,0.46456-1.218,0.71507-0.4435,0.74788-0.4817,0.67554-0.7875l-0.063549-0.2685-0.78772,0.08c-0.4332,0.044-0.83685,0.043-0.89699,0-0.19415-0.1462-0.56091-1.5259-0.49933-1.8785,0.055797-0.3194,0.081963-0.3405,1.1896-0.9578,0.26227-0.1463,0.2696-0.5368,0.016565-0.8852l-0.19431-0.2676-0.67889,0.1607c-0.47434,0.1122-0.71412,0.134-0.79579,0.072-0.24478-0.1845-0.42019-2.5352-0.21701-2.9081,0.056358-0.1038,0.27901-0.2276,0.61943-0.3451,0.29223-0.101,0.56567-0.2181,0.60772-0.2599,0.10953-0.1102,0.15223-0.5353,0.066212-0.6614-0.12982-0.1902-0.85105-0.291-1.3818-0.1931-0.27673,0.051-0.52511,0.095-0.55191,0.099-0.14577,0.018-0.30702-0.4318-0.48459-1.3514-0.22894-1.1857-0.18757-1.3582,0.40207-1.6755,0.26022-0.1397,0.38415-0.2876,0.56592-0.6736,0.12803-0.2719,0.22264-0.5347,0.21022-0.5842-0.060878-0.2427-0.34539-0.3336-0.99453-0.3179-0.24758,0.01-0.59418-0.053-0.77009-0.1318l-0.31987-0.1425-0.2568-1.1537c-0.28709-1.2898-0.27479-1.3968,0.18179-1.5812,0.96744-0.3906,1.4463-0.771,1.3711-1.089-0.049089-0.2075-0.29598-0.4634-0.4914-0.5093-0.28706-0.067-0.69319,0.013-0.80374,0.1593-0.11004,0.1461-0.46294,0.1332-0.72078-0.026-0.082574-0.051-0.17542-0.067-0.20642-0.035-0.031177,0.031-0.1756-0.3265-0.32106-0.795-0.29472-0.9492-0.67892-3.4675-0.61964-4.0616,0.02815-0.282,0.00734-0.3685-0.12755-0.5303-0.13715-0.1646-0.15745-0.2576-0.1359-0.623,0.013898-0.2363,0.055834-0.4972,0.093148-0.5798,0.080925-0.1791,0.40004-0.3639,0.42753-0.2477,0.011052,0.047,0.073323,0.042,0.14602-0.012,0.069695-0.052,0.36397-0.1602,0.65381-0.2421,0.28985-0.082,0.66813-0.2259,0.84093-0.3186,0.17268-0.093,0.34728-0.1582,0.38782-0.1452,0.058559,0.02,0.80692-0.07,1.2947-0.155,0.35456-0.061,1.7929-0.5422,1.9952-0.6665,0.21701-0.1336,0.28852-0.1402,0.50324-0.047,0.14059,0.06,0.28464,0.2023,0.3291,0.3241,0.094634,0.259,0.64746,0.6582,0.84645,0.6111,0.39464-0.093,0.47363-0.4455,0.12092-0.539-0.20508-0.054-0.27517-0.2502-0.17235-0.4817,0.12286-0.2765,0.63294-0.4936,2.0236-0.8611,1.5263-0.4032,1.4474-0.4082,2.0257,0.1279,0.61632,0.5714,1.141,0.7437,1.1665,0.3831,0.0058-0.084,0.03663-0.2532,0.06826-0.3777,0.03168-0.1243,0.05494-0.3473,0.05172-0.4953-0.009-0.4126,0.07615-0.4742,0.73328-0.5307,0.54375-0.047,1.0529-0.1536,1.9006-0.3983l0.35831-0.1033,0.20145,0.4424c0.22773,0.5002,0.38489,0.6521,0.61746,0.5971,0.21993-0.052,0.70881-0.5142,0.67867-0.6415-0.0452-0.1911,0.31778-0.9606,0.49685-1.0534,0.18517-0.095,0.66305-0.1672,1.3774-0.1921,0.23163-0.01,0.74501-0.1167,1.1411-0.2371,0.81888-0.2493,1.2637-0.2518,1.4576-0.01,0.06946,0.087,0.27328,0.4019,0.45295,0.6986,0.29198,0.4822,0.34812,0.534,0.52942,0.4895,0.4869-0.1255,0.91388-0.6139,0.90172-1.0462-0.0087-0.3075,0.11498-0.8091,0.20719-0.8407,0.05248-0.023,0.43073-0.102,0.83774-0.188s0.93184-0.2461,1.1662-0.3561c0.57247-0.2674,0.74275-0.2189,0.92915,0.2666,0.2913,0.7584,0.55574,1.0434,0.95256,1.0267,0.12233-0.01,0.16982-0.05,0.15002-0.1341-0.06005-0.2538,0.01248-0.8055,0.13426-1.0212,0.0686-0.1214,0.1667-0.3371,0.21801-0.4793,0.08167-0.226,0.12709-0.2584,0.36419-0.2581,0.1489-0.0003,0.65593-0.1008,1.1267-0.2235,0.97247-0.2547,1.0057-0.2482,1.3618,0.4327,0.21076,0.4017,0.39198,0.5027,0.74986,0.418,0.44651-0.1057,0.61386-0.3007,0.69198-0.8066,0.0397-0.2571,0.12652-0.5069,0.19293-0.5552,0.06634-0.048,0.87492-0.2974,1.7965-0.5545,0.92156-0.2571,1.8021-0.5178,1.9567-0.5794,0.37381-0.1491,1.224-0.1879,1.4526-0.065,0.17086,0.092,0.20239,0.1961,0.48335,1.6005,0.19189,0.9592,0.3996,1.7719,0.57446,2.2477,0.25877,0.7042,0.26922,0.7691,0.18909,1.1744-0.07,0.3544-0.14381,0.4737-0.42315,0.6839-0.32158,0.2421-0.75442,0.8329-0.71921,0.9817,0.03799,0.1606,0.58648,0.3879,0.92617,0.3838,0.6644-0.01,0.69224,0.031,0.95647,1.3443,0.27528,1.368,0.27122,1.9591-0.01572,2.2865-0.10751,0.1231-0.20802,0.3172-0.22319,0.4322-0.01515,0.1151-0.09053,0.2302-0.16751,0.2557-0.07632,0.028-0.23262,0.076-0.34577,0.1116-0.28705,0.091-0.35366,0.1751-0.45032,0.5713-0.10109,0.4142-0.04133,0.4626,0.57821,0.4673,0.66263,0.01,1.082,0.1329,1.2094,0.3679,0.06155,0.1135,0.26387,0.8607,0.44959,1.6603,0.35478,1.5276,0.36626,1.8242,0.07284,1.8937-0.08705,0.021-0.15066,0.069-0.14122,0.1094,0.02857,0.1208-0.30323,0.2409-0.74424,0.2696-0.36861,0.024-0.43118,0.051-0.52089,0.225-0.15047,0.2913-0.0548,0.5551,0.24481,0.6752,0.22873,0.092,0.79756,0.1255,1.6352,0.097,0.14888,0,0.30302,0.048,0.34289,0.1168,0.24492,0.4252,0.61363,2.7404,0.46131,2.8966-0.04805,0.049-0.18804,0.1144-0.31128,0.1435-0.40677,0.096-0.87032,0.5087-0.82319,0.7277,0.007,0.033,0.23958,0.01,0.51669-0.058,0.27702-0.065,0.55538-0.1006,0.61873-0.079,0.20461,0.071,0.65772,1.6277,0.74078,2.5453,0.04182,0.4621-0.1539,0.6881-0.64462,0.744-0.39617,0.045-0.71152,0.1909-0.7245,0.3335-0.01346,0.1505,0.55689,0.3006,0.99776,0.2627,0.55655-0.047,0.6175,0.043,0.93314,1.3927,0.38922,1.6641,0.38877,1.667-0.34583,1.9493-0.36228,0.1392-0.50732,0.3171-0.64381,0.7891-0.05962,0.206-0.04392,0.2326,0.20761,0.3512,0.14966,0.071,0.5097,0.1561,0.80009,0.19,0.29044,0.034,0.58717,0.094,0.65952,0.1348,0.16655,0.093,0.25827,0.4566,0.41173,1.6329,0.13808,1.0586,0.08841,1.3388-0.2917,1.6466-0.80734,0.6539-0.8565,0.7467-0.62826,1.187,0.1653,0.3189,0.78955,0.6854,1.1769,0.6909,0.19433,0,0.44855,0.021,0.5647,0.041,0.24454,0.041,0.23031-0.028,0.53682,2.5886,0.0986,0.842,0.27256,1.9529,0.3865,2.4684,0.21489,0.9722,0.19778,1.2208-0.08871,1.2885-0.0758,0.018-0.15793,0.02-0.18234,0.01zm-1.5305-1.4767c-0.07407-0.313-0.11486-0.6437-0.09069-0.7351,0.07683-0.2897-0.42532-2.916-0.58879-3.0793-0.04524-0.045-0.16769-0.062-0.27188-0.037-0.11668,0.028-0.29444-0.036-0.46278-0.1669-0.15034-0.1165-0.3619-0.2777-0.47012-0.3582-0.10822-0.081-0.25908-0.3128-0.33526-0.5161-0.07617-0.2032-0.17243-0.4552-0.21392-0.5599-0.0862-0.2176-0.04877-0.9573,0.06512-1.2872,0.08524-0.2467,0.7347-0.7777,1.0397-0.8499,0.24857-0.059,0.31308-0.2969,0.20463-0.7552-0.17349-0.7333-0.26369-0.8395-0.81272-0.9577-0.27646-0.06-0.56029-0.1415-0.63072-0.1823-0.07046-0.041-0.18019-0.091-0.24391-0.1124-0.1726-0.057-0.57068-0.4903-0.69133-0.7527-0.1514-0.3292-0.13-1.1752,0.03719-1.4681,0.20972-0.3676,0.63535-0.698,1.1134-0.8646l0.42214-0.1471-0.07006-0.2905c-0.1006-0.4174-0.21269-0.4874-0.67731-0.4236-0.51685,0.071-0.90539-0.1274-1.3384-0.6834-0.39016-0.5011-0.4394-0.9204-0.16646-1.4173,0.23008-0.4187,0.54972-0.6618,1.1434-0.8694,0.48394-0.17,0.50166-0.2081,0.26593-0.5774-0.127-0.1992-0.18625-0.2178-0.53848-0.1694-0.77491,0.1063-1.6666-0.4862-1.9896-1.3224-0.11821-0.3061-0.11208-0.3774,0.06016-0.7017,0.25629-0.4826,0.58802-0.7082,1.3531-0.9202l0.63838-0.1778-0.12042-0.3864c-0.06623-0.2126-0.16018-0.4123-0.20874-0.4439-0.0486-0.032-0.36618-0.062-0.70582-0.067-0.78967-0.013-1.0432-0.1637-1.5572-0.926-0.44724-0.6633-0.57307-1.0282-0.43289-1.2553,0.0508-0.082,0.08563-0.1793,0.07756-0.2159-0.02271-0.1029,0.4076-0.5217,0.65917-0.6414,0.12416-0.059,0.43127-0.1606,0.68253-0.2252l0.45661-0.1183-0.22123-0.8672-0.22118-0.8669-0.4085,0.039c-0.86923,0.083-1.2272-0.1016-1.8571-0.9594-0.64396-0.8769-0.63035-1.4322,0.05247-2.1392,0.26583-0.2753,0.45812-0.393,0.84896-0.5192l0.50539-0.1627-0.19357-0.8355-0.19355-0.8354h-0.22996c-0.59183,0.01-0.85703-0.047-1.1476-0.241-0.1728-0.1154-0.30385-0.2265-0.29122-0.2469,0.01263-0.02-0.06294-0.1555-0.16794-0.3001-0.10498-0.1446-0.23339-0.4425-0.28531-0.6619-0.07805-0.3299-0.06167-0.4727,0.09438-0.8226,0.10388-0.2327,0.21104-0.507,0.23817-0.6093,0.05961-0.2248,0.74384-0.7883,1.0433-0.8592,0.20734-0.049,0.21024-0.061,0.0751-0.3367-0.07714-0.1573-0.29486-0.9381-0.48389-1.7355l-0.34383-1.4497-0.65818,0.094c-0.362,0.052-1.1596,0.1829-1.7723,0.2918l-1.1143,0.1968-0.03368,0.4757c-0.05316,0.7515-0.13169,0.9517-0.49103,1.2525-0.49664,0.4157-0.83569,0.5378-1.425,0.5136-0.63977-0.026-1.2909-0.3823-1.5779-0.8625-0.19119-0.3199-0.20562-0.3265-0.57402-0.2643-0.36018,0.062-0.37392,0.073-0.29478,0.2495,0.11132,0.2485-0.0358,0.8103-0.32121,1.2266-0.35141,0.5126-0.83489,0.7367-1.5048,0.6972-0.43198-0.025-1.1176-0.5836-1.3705-1.1157l-0.17884-0.3763-0.46436,0.1099-0.46436,0.1098-0.03508,0.4376c-0.05574,0.6947-0.69436,1.4369-1.373,1.5958-0.3921,0.092-1.0305,0.079-1.3785-0.027-0.3867-0.1183-0.88423-0.4958-1.0534-0.7993-0.09231-0.1656-0.1979-0.3233-0.23462-0.3505-0.03674-0.027-0.5372,0.043-1.1124,0.1548-0.57506,0.1125-1.1026,0.1756-1.1719,0.1416-0.14132-0.07-0.13995-0.076-0.14302,0.5983-0.0046,1.0187-0.04665,1.1356-0.55349,1.5404-0.78729,0.6285-1.7301,0.7224-2.3094,0.2299-0.42036-0.3573-0.62639-0.6505-0.63035-0.897-0.0038-0.2333-0.01251-0.2368-0.4597-0.1884-0.49406,0.053-0.76563,0.2182-0.71498,0.4323,0.03343,0.1413-0.12139,0.7784-0.25718,1.0585-0.1086,0.2241-0.5692,0.5728-0.99304,0.7518-0.58914,0.2489-1.514-0.1251-1.7621-0.7124-0.11112-0.2631-0.16527-0.3046-0.38699-0.2969-0.36157,0.013-1.0493,0.1835-1.0124,0.2508,0.11506,0.2111-0.14376,1.1574-0.4331,1.5836-0.21721,0.3201-1.2713,0.5975-1.7782,0.468-0.35553-0.091-0.80614-0.4091-0.91193-0.6441-0.20008-0.4447-0.1293-0.4455-2.3628,0.028l-2.0775,0.4401-0.027699,0.2077c-0.092267,0.6928,0.00307,1.4186,0.47714,3.6324l0.13291,0.6207,0.31298,0.018c0.59089,0.035,1.6096,0.5885,1.6982,0.9233,0.011681,0.044,0.061436,0.1198,0.11064,0.1684,0.1621,0.1602,0.30086,0.928,0.22867,1.2654-0.097809,0.4572-0.49647,1.0011-0.88228,1.2034-0.17927,0.094-0.36285,0.1936-0.40805,0.2214-0.087016,0.054-0.052719,0.6914,0.04489,0.8345,0.031798,0.047,0.31236,0.073,0.62377,0.058,0.76883-0.035,1.1826,0.1293,1.5678,0.6243,0.40591,0.5217,0.60706,1.3005,0.46255,1.7909-0.1073,0.3642-0.54331,0.9047-0.80776,1.0015-0.092302,0.033-0.25925,0.1127-0.37139,0.1752-0.11213,0.062-0.33967,0.1524-0.50582,0.1989-0.25619,0.071-0.29937,0.115-0.28324,0.2887,0.01039,0.1125,0.092633,0.3322,0.18276,0.4884,0.14866,0.2576,0.18971,0.2778,0.44253,0.2179,0.15327-0.036,0.28774-0.068,0.30112-0.061,0.011078,0,0.24035-0.0004,0.50811-0.0009,0.55325,0,1.0098,0.1742,1.1637,0.4497,0.22111,0.3954,0.35631,1.2364,0.26458,1.6457-0.11782,0.5258-0.55045,0.9736-1.0565,1.0933-0.53908,0.1276-0.61013,0.1999-0.52858,0.5382,0.090097,0.3735,0.14304,0.4158,0.62742,0.5004,0.86933,0.1518,1.0735,0.3219,1.3423,1.1185,0.3138,0.9299,0.082513,1.4955-0.73036,1.7861-0.23237,0.083-0.43474,0.1707-0.44962,0.1958-0.015115,0.024,0.00797,0.2211,0.051153,0.4371,0.072435,0.3622,0.094677,0.3911,0.28601,0.3709,0.31909-0.033,1.3016,0.04,1.438,0.1078,0.22098,0.1096,0.60438,0.6157,0.66629,0.8794,0.18234,0.7769-0.14684,1.4017-0.88758,1.684-0.34351,0.1316-0.3761,0.165-0.33562,0.3574,0.024588,0.1167,0.073757,0.4351,0.10934,0.7074,0.035548,0.2722,0.096375,0.64,0.13513,0.8171l0.070464,0.3222,0.5554,0.062c1.0426,0.1165,1.3454,0.3644,1.4646,1.1987,0.10733,0.7513,0.000215,1.0678-0.53165,1.571-0.2531,0.2394-0.57872,0.5118-0.72357,0.6053l-0.2634,0.17,0.1512,0.6805c0.1272,0.5725,0.17432,0.6821,0.29691,0.6906,1.5026,0.105,2.3757,0.724,2.5064,1.7769,0.07042,0.5673,0.05658,0.6724-0.13082,0.9918-0.20805,0.3549-1.0096,1.0216-1.3148,1.0938-0.1747,0.041-0.19758,0.087-0.1553,0.3132,0.08419,0.4511,0.2808,1.1162,0.52284,1.7688,0.40384,1.0888,0.33529,1.0197,0.97362,0.9832,0.51981-0.03,1.7023-0.3627,2.2102-0.6226,0.08354-0.042,0.28275-0.1317,0.44296-0.1973,0.25071-0.1035,0.30571-0.1791,0.39635-0.5451,0.18053-0.7288,0.81508-1.3162,1.6294-1.5081,0.73674-0.1738,1.1499,0.1098,1.6021,1.0993,0.08305,0.1817,0.06164,0.1746,0.43292,0.1451,0.35115-0.028,0.44166-0.1795,0.35517-0.5927-0.0513-0.2455-0.0082-0.3989,0.36398-1.2921l0.24124-0.579,0.41454-0.098c0.60526-0.1432,1.3769-0.045,1.7676,0.2247,0.3258,0.2249,0.83211,0.8917,0.90224,1.1881,0.03355,0.1418,0.09463,0.1445,0.5926,0.027,0.59296-0.1403,0.64332-0.1954,0.54585-0.6073-0.06723-0.2842,0.08924-0.846,0.32344-1.1612,0.17002-0.2289,0.27905-0.2894,0.70174-0.3894,0.67538-0.1598,1.4572-0.1323,1.7892,0.063,0.25283,0.1487,0.77158,0.9103,0.69954,1.0271-0.01769,0.029,0.01996,0.1113,0.08393,0.1836,0.1015,0.1148,0.21741,0.1075,0.91878-0.059,0.44144-0.1044,0.79618-0.2172,0.78835-0.2502-0.0078-0.033-0.07648-0.1715-0.1523-0.3065-0.09809-0.1747-0.13475-0.3862-0.12696-0.7325,0.01241-0.5518,0.07976-0.7057,0.51026-1.1645,0.36838-0.3928,0.77988-0.5133,1.3647-0.399,0.63634,0.1237,1.1036,0.4487,1.3378,0.9305l0.20015,0.4117,0.71837-0.1967,0.71837-0.1967-0.07874-0.3215c-0.04331-0.177-0.05741-0.368-0.03134-0.4246,0.0261-0.056,0.04117-0.1801,0.0335-0.2746-0.02018-0.2489,0.25942-0.8307,0.49743-1.0351,0.23945-0.2058,1.1313-0.4386,1.4965-0.3911,0.327,0.043,0.61906,0.2116,1.1783,0.6817,0.38312,0.322,0.47726,0.4504,0.54725,0.7462l0.08452,0.3573,0.53793-0.153,0.53793-0.153-0.05789-0.3571c-0.04872-0.3006-0.01172-0.432,0.23336-0.829,0.36304-0.5881,0.77084-0.7728,1.5382-0.6965,0.6315,0.063,1.1563,0.4696,1.5264,1.1835,0.12214,0.2356,0.0676,0.2331,1.5444,0.07,0.59271-0.065,1.1712-0.1275,1.2857-0.1379,0.11444-0.011,0.41761-0.064,0.67395-0.1173l0.46567-0.099-0.13465-0.5691zm-24.785,2.5517c-0.29017-0.024-0.58158,0.018-2.7566,0.392-1.1128,0.1914-1.6363,0.3152-1.9827,0.4691-0.629,0.2747-0.82978,0.3155-1.0504,0.2136-0.17175-0.08-0.15785-0.089,0.18838-0.1237,0.20557-0.021,0.67285-0.1489,1.0377-0.2876,0.89763-0.337,4.0344-0.9196,4.4649-0.8291,0.22862,0.048,0.45097,0.014,0.98474-0.1519,1.0669-0.3305,2.3767-0.7168,3.0382-0.8962,0.41221-0.1119,0.65789-0.2235,0.78347-0.3557,0.10061-0.106,0.25145-0.1942,0.33525-0.1958,0.10557,0,0.04419,0.083-0.2009,0.2763-0.35508,0.2805-0.66129,0.3863-2.7182,0.9392-0.32995,0.088-0.88393,0.2543-1.2314,0.3674-0.3565,0.1162-0.74504,0.1968-0.89199,0.1843zm20.146-4.9186c-0.01524-0.057,0.0023-0.224,0.03902-0.3706,0.05875-0.2351,0.1094-0.277,0.42703-0.3521,0.19821-0.047,0.36752-0.055,0.3765-0.017,0.01358,0.057,0.1435,0.1022,0.57891,0.2,0.03714,0.01-0.0071-0.3053-0.09809-0.6969-0.09093-0.3917-0.21597-1.083-0.27769-1.5362-0.16949-1.2444-0.27022-1.8081-0.66785-3.7378-0.20044-0.9727-0.34595-1.7571-0.32334-1.7431,0.09224,0.057,1.021,4.205,1.0579,4.7245,0.02193,0.3086,0.17245,1.1363,0.33444,1.8392,0.23221,1.008,0.27318,1.2929,0.19335,1.3472-0.11642,0.079-0.79659-0.033-0.82086-0.1354-0.0087-0.037-0.13256-0.041-0.27487-0.01-0.1846,0.044-0.29552,0.1377-0.3877,0.3256-0.07092,0.1454-0.1414,0.2176-0.15663,0.1604zm-6.248,1.2861c-0.16403,0-0.69213,0.1123-1.1737,0.252-0.48132,0.1406-0.96633,0.242-1.0774,0.2271-0.12607-0.017,0.49002-0.1868,1.6376-0.4481,1.0428-0.2364,2.2481-0.5637,2.7817-0.7527,0.57946-0.2039,1.1803-0.3635,1.5605-0.4144,0.69837-0.093,0.59779-0.05-0.65563,0.2846-0.48408,0.1289-1.1245,0.3339-1.4235,0.4544-0.63468,0.2568-1.2304,0.4001-1.6489,0.4005zm-9.0664,1.6095c-0.1271-0.069-5.7615,1.0718-6.572,1.3303-0.79054,0.2518-5.1183,1.1555-5.3134,1.1086-0.09461-0.023-0.32415-0.074-0.51027-0.1153l-0.33838-0.074-0.66722-2.7835c-0.36698-1.5308-0.80151-3.3449-0.96564-4.0312-0.2679-1.1201-0.61854-2.7652-1.3203-6.1943-0.12785-0.6247-0.40554-1.9748-0.61714-3.0003-0.21156-1.0253-0.37245-1.9011-0.35752-1.9461,0.015-0.045-0.14855-0.8678-0.3633-1.8286-0.21477-0.9608-0.44918-2.0966-0.52096-2.524-0.071767-0.4275-0.34056-1.7417-0.59734-2.9207-0.25678-1.1789-0.57129-2.6547-0.6989-3.2794-0.14081-0.6893-0.29182-1.2368-0.38462-1.3925-0.14584-0.2454-0.14178-0.2714,0.091865-0.5852,0.37527-0.5038,0.57598-0.5688,5.7276-1.8533,1.5683-0.3905,3.7171-0.9339,4.7755-1.2059s2.3114-0.5572,2.7853-0.6303c0.47344-0.075,3.0953-0.6409,5.8263-1.258,2.7309-0.6173,5.259-1.1754,5.6178-1.2408,0.35878-0.065,1.1616-0.2183,1.7842-0.3399,0.80969-0.1577,1.1757-0.197,1.2859-0.1372,0.08948,0.049,0.23902,0.046,0.35643-0.01,0.12342-0.056,0.23821-0.056,0.29503,0,0.09099,0.091,0.59932,2.2903,0.558,2.4144-0.03997,0.1201,0.65908,3.3018,2.1655,9.8565,1.4093,6.1318,1.9497,8.4363,2.9764,12.692,0.22421,0.9293,0.50175,2.2224,0.61671,2.8735,0.11499,0.6511,0.29348,1.5047,0.39664,1.8969s0.18247,0.7808,0.17627,0.8635c-0.01409,0.1871-0.39126,0.4693-0.55461,0.4149-0.06657-0.022-0.26756-0.013-0.44684,0.02-0.64092,0.1208-5.8981,1.374-6.5618,1.5649-0.37241,0.1066-1.8934,0.4994-3.3805,0.8707-1.4871,0.3714-2.7309,0.7017-2.7637,0.7351-0.05461,0.055-1.4948,0.4308-1.7859,0.4668-0.06876,0.01-0.24774,0.07-0.39882,0.1375-0.15132,0.067-0.29354,0.1126-0.31666,0.1zm3.8925-1.9078c0.52226-0.1914,6.1682-1.686,6.5236-1.7263,0.04661-0.0008,1.1419-0.2394,2.4363-0.521l2.3535-0.5116-0.30342-1.5685c-0.70025-3.6198-1.9223-8.9175-2.4332-10.548-0.53124-1.6955-2.0065-8.3274-2.3007-10.343-0.06272-0.4296-0.20738-1.0844-0.32144-1.455s-0.25688-0.8918-0.31735-1.1582c-0.06045-0.2664-0.30152-1.3385-0.53566-2.3824l-0.42572-1.8981-0.88082,0.1961c-0.48523,0.1045-1.5792,0.3182-2.4329,0.4665-4.1744,0.7269-5.8814,1.0515-8.3835,1.5941-0.84539,0.1836-1.741,0.3616-1.9902,0.3959-1.4562,0.2005-7.0325,1.6537-8.3306,2.1774-0.27782,0.111-1.4953,0.4268-2.7058,0.7009-1.8985,0.4307-2.2007,0.5207-2.2076,0.6283-0.00383,0.071,0.12982,0.6901,0.29683,1.3757,0.17202,0.7061,0.32639,1.5545,0.3561,1.9571,0.033606,0.4555,0.23618,1.5068,0.56429,2.9284,0.59455,2.5761,1.107,5.0545,1.2155,5.879,0.10168,0.7723,0.9364,4.4044,2.8457,12.383,0.1537,0.6419,0.4471,2.0119,0.65212,3.0442l0.37282,1.8772,0.29051,0.03c0.57705,0.06,1.8369-0.1732,4.6801-0.8652,1.5925-0.3871,3.7152-0.879,4.7191-1.0847,2.3373-0.4873,5.4088-1.2572,6.2626-1.5712zm-0.7043-0.1008c-0.66301,0.072-5.5428,1.0431-6.8638,1.3668-0.5293,0.1355-1.2849,0.342-1.6762,0.4716-0.39148,0.1286-1.0047,0.284-1.3629,0.3441-0.35827,0.06-0.97169,0.2145-1.3636,0.3411-1.0052,0.3283-2.2527,0.5464-2.5365,0.4436-0.1344-0.048-0.30074-0.045-0.40596,0.01-0.12906,0.066-0.24303,0.047-0.41082-0.062-0.19539-0.1292-0.25971-0.2532-0.40184-0.775-0.09308-0.3416-0.33881-1.2125-0.54611-1.9354-0.20729-0.7228-0.37672-1.3407-0.37648-1.3729,0.0019-0.2955-0.88076-4.1232-0.98699-4.28-0.0845-0.1247-0.10881-0.2201-0.06674-0.2622,0.03917-0.039-0.10735-0.7995-0.35895-1.8629-0.2568-1.0853-0.42797-1.9771-0.43241-2.2529-0.0046-0.2891-0.23143-1.4319-0.61892-3.1185-0.72752-3.1666-1.9632-9.0629-1.9464-9.2873,0.00663-0.087-0.14546-0.8306-0.33783-1.6522-0.19791-0.8451-0.3216-1.522-0.2849-1.5588,0.035811-0.035,0.12078-0.039,0.19008,0,0.094572,0.047,0.13529,0.011,0.16657-0.147l0.041332-0.2093,3.375-0.7759c1.8562-0.4269,4.6343-1.0348,6.1733-1.3515,1.539-0.3169,2.9246-0.6077,3.0794-0.6454,1.1749-0.2913,7.128-1.4941,7.5554-1.5272,0.29513-0.023,0.96644-0.1235,1.492-0.2236l0.95552-0.1819,0.27606-0.4544c0.21615-0.3558,0.28403-0.4208,0.31274-0.2995,0.02003,0.085-0.02014,0.2547-0.08957,0.3765-0.0694,0.122-0.10013,0.2378-0.06825,0.2575,0.03177,0.019,0.66255-0.097,1.4019-0.2577,0.73914-0.1616,1.3658-0.28,1.3924-0.2637,0.02663,0.016,0.07373,0.381,0.10459,0.8103,0.08678,1.207,0.38972,2.7461,1.341,6.813,0.48216,2.0612,0.95512,4.1978,1.0511,4.7482,0.15281,0.8763,0.19007,0.9969,0.2997,0.971,0.06887-0.016,0.13629,0.015,0.15016,0.071,0.0139,0.055,0.06887,0.1821,0.12264,0.282,0.0685,0.1272,0.06576,0.1708-0.0092,0.1459-0.15663-0.052-0.11876,0.1298,0.52906,2.5458,0.84886,3.1658,1.5128,6.0296,1.5404,6.6444,0.0187,0.4159,0.29034,1.8691,0.71272,3.8129,0.17969,0.8269,0.18972,0.9664,0.07886,1.0963-0.09422,0.1106-0.43638,0.2238-1.3266,0.4397-0.73808,0.1747-1.2323,0.3348-1.2846,0.4037-0.10772,0.1429-1.5188,0.5056-3.5701,0.9176-0.87076,0.1752-1.8297,0.4093-2.131,0.5197-0.30112,0.1113-0.86462,0.318-1.2521,0.4598-0.38742,0.142-0.79214,0.2918-0.89923,0.3335-0.10707,0.042-0.43696,0.1034-0.73366,0.1346zm-1.5729-0.9719c0.02921-0.017,0.06025-0.1754,0.06603-0.3639,0.0058-0.1884,0.04537-0.3509,0.08796-0.361,0.04259-0.01,0.06708-0.062,0.05433-0.116-0.01266-0.054,0.16498-0.516,0.39487-1.0273,0.22991-0.5111,0.41451-0.9442,0.41018-0.9625-0.01497-0.063-0.57458-0.01-0.68568,0.07-0.1173,0.08-0.59137,1.0363-0.76256,1.5382-0.30433,0.8924-0.41748,1.1554-0.50769,1.1795-0.19504,0.056-0.15734-0.2424,0.1188-0.9062,0.1541-0.3704,0.32891-0.7617,0.38852-0.8693,0.20742-0.3747,0.39873-0.7751,0.3895-0.8152-0.0051-0.021-0.30197,0.049-0.66012,0.1562l-0.65071,0.1971-0.50019,1.2241c-0.27508,0.6733-0.50638,1.2925-0.51393,1.3762-0.01564,0.1733-0.23226,0.2588-0.26812,0.1066-0.02802-0.1185,0.2956-0.9703,0.74482-1.9611,0.31529-0.6956,0.31721-0.708,0.15291-0.9883-0.14657-0.2501-0.15174-0.301-0.04352-0.4278,0.06746-0.08,0.15655-0.1646,0.19769-0.1901,0.04975-0.03,0.02943-0.1199-0.0601-0.2653-0.22143-0.3593-0.53371-0.2618-0.81844,0.2553-0.22825,0.415-0.27012,0.6442-0.11083,0.6065,0.11404-0.027,0.22869,0.5182,0.1298,0.6172-0.04493,0.046-0.23711,0.1106-0.42713,0.1443-0.32751,0.059-0.35461,0.084-0.52098,0.5122-0.09674,0.2471-0.23642,0.6931-0.31035,0.9914-0.07396,0.2981-0.18404,0.696-0.24467,0.8839l-0.11021,0.3417h0.23074c0.12696,0,0.53841-0.091,0.91459-0.2062,0.37618-0.1146,0.85132-0.223,1.0561-0.2396,0.28586-0.024,1.3772-0.3155,1.8584-0.5034zm1.6164-0.9304c0.24858-0.3934,0.50095-0.8608,0.56082-1.0387,0.05987-0.1778,0.22018-0.5836,0.35626-0.9015,0.66547-1.5553,0.80755-1.8919,0.96804-2.2936l0.17334-0.4338-0.20294-0.1009c-0.1117-0.056-0.2533-0.089-0.31484-0.074-0.06155,0.015-0.12479-0.028-0.14045-0.094-0.04467-0.1888-0.23945-0.094-0.39231,0.1915-0.07642,0.1426-0.24094,0.4348-0.3656,0.6494s-0.22254,0.4075-0.21755,0.4286c0.0051,0.021-0.04538,0.1722-0.11199,0.3355-0.07659,0.1877-0.09339,0.4141-0.04573,0.6156,0.07128,0.3013,0.05953,0.3275-0.21712,0.4817-0.32323,0.1803-0.46112,0.4162-0.80701,1.3804-0.12838,0.3578-0.25704,0.6754-0.28596,0.7057-0.02887,0.031-0.10233,0.2583-0.16321,0.5065-0.13068,0.5328-0.03155,0.6338,0.45415,0.4629,0.24657-0.087,0.38059-0.233,0.7521-0.8207zm-9.009,2.2676c0.15324-0.3053,0.51324-0.9468,0.80001-1.4256,0.28674-0.4789,0.52484-0.9046,0.52906-0.9462,0.0043-0.041-0.12214-0.1059-0.28084-0.1431l-0.28855-0.068-0.23564,0.4173c-0.12962,0.2294-0.25006,0.4639-0.26766,0.521-0.03083,0.1008-0.14902,0.3372-0.80328,1.6111-0.29296,0.5705-0.29784,0.5969-0.11182,0.6059,0.34592,0.017,0.37615-0.01,0.65873-0.5727zm1.693-0.3769c0.06526-0.2716,0.16136-0.5722,0.21355-0.6682,0.05227-0.096,0.19621-0.3895,0.32009-0.6522,0.12387-0.2628,0.30644-0.6118,0.40572-0.7755l0.18049-0.2979-0.53394,0.052-0.53392,0.052-0.32227,0.5754c-0.73399,1.3109-1.2461,2.3253-1.2231,2.4227,0.01796,0.076,0.20252,0.062,0.69958-0.056l0.67504-0.1598,0.11872-0.4933zm1.3957-0.1414c0.04136-0.1618,0.142-0.4822,0.22369-0.712,0.08166-0.2299,0.19326-0.5808,0.24804-0.7798,0.05475-0.199,0.162-0.4857,0.23834-0.6371,0.07637-0.1512,0.1318-0.3048,0.12321-0.3411-0.0087-0.037-0.17362-0.046-0.36654-0.021-0.33522,0.042-0.3663,0.069-0.69029,0.6009-0.18661,0.3061-0.41089,0.784-0.49842,1.0619-0.0875,0.278-0.21823,0.6496-0.29056,0.8256-0.20654,0.5029-0.15288,0.5552,0.42871,0.4176,0.49202-0.1164,0.51081-0.1312,0.58382-0.4146zm7.3665-1.6288c0.0068-0.091,0.05689-0.1955,0.11127-0.2326,0.05451-0.036,0.24176-0.4007,0.41639-0.8081,0.17468-0.4073,0.45072-0.9573,0.61344-1.2222,0.16273-0.2649,0.28805-0.5147,0.27852-0.555-0.0097-0.041,0.01898-0.082,0.06328-0.092,0.04431-0.011,0.05031-0.1468,0.01336-0.303-0.05784-0.2445-0.03797-0.2979,0.14301-0.3842,0.30002-0.1429,0.60817-0.8882,0.48156-1.1644-0.09938-0.2169-0.68638-0.8515-0.77293-0.8355-0.14604,0.024-1.7621,3.6596-2.1751,4.8884-0.0334,0.099-0.19275,0.4146-0.35409,0.7005l-0.29338,0.5197,0.73117-0.173c0.64863-0.1535,0.73254-0.1918,0.74359-0.3382zm1.9021-0.4192c-0.03465-0.1465,0.4369-1.3959,0.7721-2.0458,0.16356-0.3171,0.27-0.6039,0.23652-0.6374-0.03341-0.033-0.3239,0.017-0.64576,0.1106-0.50069,0.1462-0.61298,0.2119-0.77994,0.4504-0.233,0.3328-1.1342,2.3961-1.1034,2.5262,0.01474,0.062,0.25946,0.029,0.78223-0.109,0.52722-0.1381,0.75368-0.2297,0.73804-0.2958zm3.9742-0.9506c0.46483-0.076,0.46516-0.076,0.54088-0.4049,0.24823-1.0747,0.43109-1.7461,0.60584-2.2248,0.10881-0.2981,0.19325-0.5613,0.18763-0.585-0.0055-0.023,0.05495-0.1722,0.13455-0.3301,0.11151-0.221,0.1232-0.378,0.05092-0.6835-0.0516-0.218-0.11431-0.3916-0.13938-0.3856-0.10839,0.026-0.31604,0.2583-0.2981,0.3341,0.01082,0.046-0.06596,0.1981-0.17056,0.3389-0.10458,0.1408-0.28214,0.4769-0.39454,0.7471-0.11245,0.2699-0.21944,0.5137-0.23782,0.5414-0.01855,0.027-0.05942,0.1427-0.09121,0.2555-0.1371,0.4865-0.18715,0.638-0.39644,1.2003-0.12153,0.3266-0.21488,0.6196-0.20746,0.6509,0.0074,0.031-0.06311,0.2129-0.15673,0.4034-0.15975,0.3248-0.13869,0.5455,0.0306,0.3207,0.04222-0.056,0.28604-0.1365,0.5418-0.1785zm-17.393,3.9116c0.02352-0.1455,0.15236-0.4233,0.28631-0.6175,0.22455-0.3257,0.4776-0.8002,1.2483-2.3408,0.15925-0.3184,0.31786-0.5982,0.35242-0.622,0.0346-0.024,0.01179-0.259-0.05059-0.5226-0.10575-0.447-0.12253-0.4714-0.2478-0.3606-0.2478,0.2189-0.53456,0.7629-0.80733,1.5318-0.15155,0.427-0.35776,0.8376-0.46847,0.9326-0.10873,0.094-0.32654,0.4047-0.48399,0.6915-0.15742,0.287-0.35941,0.654-0.4489,0.8154-0.23015,0.4156-0.40555,0.8292-0.38621,0.9109,0.009,0.038,0.22966,0.02,0.49008-0.042,0.4498-0.1064,0.47573-0.1248,0.51627-0.3763zm14.942-3.5347c0.15356-0.3946,0.56658-1.3006,0.85946-1.8849,0.15205-0.3032,0.20799-0.4957,0.13944-0.4795-0.06297,0.015-0.14109,0.068-0.17374,0.1182-0.09152,0.142-0.34723,0.2109-0.62084,0.1674-0.13691-0.022-0.2773-0.033-0.31208-0.025-0.18638,0.044-1.1696,2.2769-1.1113,2.5235,0.02072,0.088,0.15289,0.084,0.57005-0.017,0.50778-0.1202,0.54994-0.1497,0.64871-0.4037zm1.5263-0.1996c-0.01151-0.049,0.06962-0.272,0.17991-0.4978,0.11027-0.226,0.19409-0.4379,0.18629-0.4709-0.04006-0.1693,1.0432-2.9582,1.358-3.4959,0.36805-0.6287,0.46592-0.9614,0.41621-1.4146-0.03462-0.3157-0.08093-0.47-0.13709-0.4567-0.04664,0.011-0.21141,0.2634-0.36614,0.5609-0.15478,0.2974-0.46789,0.8596-0.69587,1.249-0.58909,1.0067-0.61964,1.1032-0.39772,1.256,0.35755,0.2461,0.12957,0.7361-0.40095,0.8616-0.26557,0.063-0.67596,0.7858-0.95976,1.6906-0.02965,0.094-0.10338,0.268-0.16386,0.3859-0.11311,0.2203-0.2337,0.5901-0.21632,0.6636,0.0053,0.022,0.28152-0.024,0.61377-0.1021,0.37945-0.09,0.59627-0.176,0.58338-0.2305zm3.0561-0.723c0.21177-0.1015,0.39816-0.2216,0.41376-0.2686,0.03283-0.098-0.2811-0.6064-0.36277-0.5871-0.02997,0.01-0.08672,0.078-0.12619,0.1574-0.07743,0.1561-0.32895,0.2496-0.42199,0.1564-0.03154-0.032,0.0505-0.2166,0.18227-0.4111l0.23955-0.354-0.15548-0.7165-0.1555-0.7167-0.14975,0.2264c-0.15692,0.2373-0.56352,1.4402-0.53193,1.5737,0.01013,0.043-0.03483,0.3381-0.09981,0.6566-0.06493,0.3188-0.11307,0.6006-0.1069,0.6267,0.01888,0.08,0.86467-0.1491,1.2746-0.3437zm-24.02,5.4708c-0.05009-0.073-0.09763-0.079-0.13698-0.015-0.07037,0.1143,0.06281,0.2783,0.15267,0.1883,0.03355-0.034,0.0265-0.1116-0.01569-0.1734zm3.2682-0.9136c0.11184-0.2253,0.32675-0.6302,0.47754-0.8998l0.2742-0.4901-0.39387,0.042c-0.21675,0.023-0.43148,0.073-0.47719,0.1129-0.04569,0.04-0.24732,0.4454-0.44796,0.9022-0.3361,0.7651-0.50138,0.9756-0.64977,0.8274-0.03147-0.032,0.07799-0.2881,0.24317-0.5703,0.42317-0.7232,0.6044-1.2426,0.46382-1.3294-0.08195-0.05-0.13717-0.035-0.20891,0.061-0.06423,0.085-0.21128,0.1374-0.43012,0.1511-0.32213,0.021-0.33691,0.034-0.4752,0.4235-0.07851,0.2209-0.23571,0.6185-0.34934,0.8836-0.11362,0.2651-0.1971,0.522-0.18555,0.5709,0.0221,0.093,0.41163,0.05,1.3782-0.1532l0.57772-0.1213,0.20338-0.4095zm-2.2073,0.028c0.14347-0.3351,0.29541-0.6748,0.33766-0.7548,0.2124-0.4032,0.30182-0.7623,0.24723-0.993l-0.06053-0.2559-0.26684,0.5166c-0.14676,0.2842-0.34684,0.7557-0.44463,1.0478-0.09778,0.2921-0.22699,0.5428-0.28715,0.557-0.10814,0.026-0.11845,0.077-0.06282,0.3125,0.09965,0.4212,0.2105,0.3323,0.53709-0.4302zm-0.48967-0.4217c0.05576-0.1247,0.1364-0.3213,0.17923-0.4369,0.12078-0.3263,0.33178-0.7708,0.54464-1.1476,0.10677-0.189,0.19833-0.5073,0.20348-0.7073,0.0051-0.2002,0.05197-0.3795,0.1041-0.3987,0.05137-0.022,0.14827-0.051,0.21356-0.072,0.16221-0.05,0.37134-0.3145,0.44071-0.5568,0.0526-0.1835,0.02515-0.2104-0.3322-0.3256l-0.38953-0.1256-0.16843,0.3175c-0.09264,0.1747-0.36516,0.7756-0.60559,1.3355-0.27292,0.6353-0.4915,1.0305-0.58171,1.0519-0.12598,0.03-0.12645,0.1172-0.0038,0.6813,0.14839,0.6823,0.22774,0.7594,0.39544,0.3841zm3.1162-2.2062c0.1189-0.199,0.21457-0.3842,0.21259-0.4117-0.0019-0.027-0.0434-0.2429-0.09199-0.4787-0.05809-0.282-0.05322-0.4646,0.01437-0.5336,0.07801-0.079,0.04302-0.091-0.14398-0.048-0.13567,0.031-0.29298,0.1166-0.34994,0.1879-0.22791,0.2885-0.81575,1.5393-0.75294,1.6021,0.07073,0.071,0.52132,0.1117,0.75688,0.069,0.0754-0.018,0.23608-0.1881,0.35497-0.3871zm-3.1929,0.067c0.17455-0.4039,0.41131-0.9034,0.52611-1.1102,0.28845-0.5191,0.29818-0.5816,0.13127-0.8433-0.19218-0.3013-0.33115-0.2558-0.52074,0.1705-0.22166,0.4981-0.48676,0.8847-0.72461,1.0562-0.20299,0.1467-0.2037,0.1583-0.04631,0.8235,0.09116,0.3853,0.19342,0.6669,0.23831,0.6563,0.04325-0.01,0.22143-0.3491,0.39598-0.7529zm18.896-4.242c-0.04761-0.5126-0.25676-1.4683-0.32641-1.4915-0.04239-0.014-0.12722,0.082-0.18806,0.2132-0.10333,0.2228-0.09735,0.2599,0.08952,0.5537,0.11452,0.1801,0.21894,0.4669,0.2439,0.6699,0.04639,0.3773,0.21581,0.4287,0.18105,0.055zm1.642-0.4439c0.10624-0.1984,0.30158-0.5604,0.43413-0.8044,0.13257-0.2439,0.36261-0.702,0.51123-1.0179,0.14863-0.3158,0.42049-0.8291,0.6041-1.1407,0.36035-0.6114,0.37931-0.8698,0.10967-1.4947l-0.13319-0.3087-0.25084,0.5844c-0.21101,0.4916-0.24115,0.665-0.18972,1.0927,0.03364,0.2797,0.0199,0.6356-0.03055,0.7909-0.11188,0.3444-0.73327,0.9215-1.0809,1.0038-0.39703,0.094-0.55615,0.4771-0.46228,1.1134,0.1056,0.7159,0.18631,0.7458,0.48835,0.1812zm-18.305,4.0036c0.16875-0.2998,0.29964-0.5754,0.29087-0.6125-0.02786-0.1177-0.28716-0.1092-0.4266,0.014-0.29376,0.2596-0.49386,1.2201-0.24174,1.1604,0.03883-0.01,0.20868-0.2618,0.37741-0.5618zm5.6789-0.9234,0.35005-0.1353,0.04187-0.6394c0.02303-0.3517,0.06897-0.6667,0.10215-0.6998,0.03308-0.034,0.05175-0.096,0.04104-0.1418-0.01059-0.045-0.28793,0.3198-0.61631,0.8101s-0.59066,0.9186-0.58283,0.9518c0.01722,0.073,0.20109,0.033,0.66399-0.1458zm10.086-2.5894c-0.06993-0.2955-0.17697-0.2876-0.23746,0.017-0.05901,0.2986-0.05486,0.3067,0.13345,0.2622,0.12529-0.03,0.14843-0.092,0.1039-0.2799zm-8.297,1.815c0.13984-0.2503,0.1706-0.3788,0.09685-0.4044-0.21352-0.074-0.30872,0.012-0.36076,0.3277-0.09514,0.577-0.02671,0.5969,0.26392,0.077zm2.9243-1.5928c0.11612-0.4877,0.1951-0.8964,0.17547-0.9085-0.01956-0.012-0.14011,0.1793-0.26772,0.4255-0.12762,0.2462-0.29135,0.5499-0.36387,0.6747-0.20818,0.3587-0.4083,0.8378-0.40663,0.9738,0.001,0.085,0.09445,0.1175,0.29403,0.1027,0.23964-0.018,0.29847-0.054,0.32505-0.2018,0.01793-0.099,0.12753-0.5789,0.24367-1.0664zm-5.2978,1.951c0.10444-0.1517,0.24984-0.3599,0.3231-0.4626,0.07328-0.1026,0.33191-0.5723,0.57481-1.0434,0.33266-0.6455,0.46657-1.025,0.54289-1.5391,0.05572-0.3754,0.09469-0.7104,0.08661-0.7446-0.02779-0.1174-0.46859,0.5743-1.0854,1.7035-0.2285,0.4182-0.53952,0.9841-0.69116,1.2573-0.30676,0.5526-0.34888,0.7778-0.19939,1.0662,0.11102,0.2142,0.15323,0.1918,0.44856-0.2373zm6.8238-1.5817c0.06998-0.1513,0.06644-0.1536-0.03755-0.023-0.06325,0.079-0.11155,0.1576-0.10762,0.1742,0.01566,0.066,0.07167,0.01,0.14521-0.1511zm-8.886,1.6252,0.35092-0.5392-0.10241-0.5762c-0.05631-0.3168-0.12502-0.5536-0.15249-0.526-0.06406,0.064-0.71468,1.413-0.7898,1.6376-0.05885,0.1757,0.14859,0.5889,0.28014,0.5577,0.03449-0.01,0.22063-0.2574,0.41364-0.5539zm7.0585-2.5931c0.10616-0.238,0.33017-0.6705,0.49773-0.9613,0.30761-0.5338,0.35058-0.6546,0.41688-1.1722,0.02496-0.1949,0.10388-0.3214,0.24893-0.399,0.18425-0.099,0.88978-1.1023,1.1418-1.624,0.04712-0.097,0.2048-0.4158,0.35046-0.7071,0.27415-0.5484,0.76545-1.7381,1.334-3.2306,0.52268-1.372,0.65514-1.6685,1.0716-2.3987,0.2159-0.3786,0.44998-0.8357,0.52011-1.0161,0.07014-0.1804,0.32776-0.7197,0.57246-1.1987,0.2447-0.4789,0.62086-1.381,0.83591-2.0047,0.38321-1.1116,0.49313-1.7271,0.35802-2.0058-0.05922-0.1222-0.08766-0.1035-0.22601,0.148-0.86785,1.5788-1.0843,1.997-1.2652,2.4442-0.11511,0.2845-0.34254,0.7785-0.5054,1.0976-0.16284,0.3193-0.33474,0.6946-0.38199,0.834-0.04726,0.1394-0.24507,0.5891-0.43959,0.9992-0.40245,0.8484-0.56587,1.2457-0.5903,1.4353-0.01497,0.1162-0.12795,0.3829-0.69856,1.6488-0.0767,0.1701-0.24318,0.5408-0.37001,0.8236-0.12682,0.2828-0.3996,0.8031-0.60622,1.1561-0.20662,0.3529-0.5114,0.9023-0.67728,1.2207-0.5091,0.9775-0.92617,1.7077-1.7147,3.0023-0.4163,0.6834-0.86922,1.4945-1.0065,1.8025-0.22014,0.494-0.23373,0.5804-0.11528,0.733,0.07383,0.095,0.15045,0.2414,0.17022,0.325,0.0198,0.084,0.0969,0.242,0.17134,0.3518l0.13536,0.1997,0.28956-0.5355c0.15926-0.2946,0.37644-0.7303,0.48263-0.9683zm2.6017-0.6659c0.05556-0.1513,0.04762-0.2337-0.02696-0.2797-0.13051-0.081-0.26524,0.042-0.22651,0.2059,0.01589,0.067-0.03005,0.2571-0.10185,0.4231-0.2538,0.5863-0.23809,0.7727,0.02589,0.3071,0.13787-0.2431,0.28609-0.5386,0.32943-0.6564zm-10.171,2.3717c0.57636-1.1414,0.65374-1.3385,0.60546-1.5426-0.02376-0.1004,0.01863-0.2752,0.09421-0.3885l0.13742-0.206-0.31712,0.076-0.31709,0.076,0.08488,0.4133c0.0467,0.2273,0.06095,0.4493,0.03165,0.4933-0.09412,0.1411-0.5732,0.1253-0.68503-0.02-0.09472-0.1241-0.15688-0.048-0.536,0.6498-0.42879,0.7901-0.48369,0.9646-0.28894,0.9185,0.05705-0.014,0.25459,0.053,0.43898,0.1478,0.1844,0.095,0.33891,0.1731,0.34334,0.1739,0.0041-0.0009,0.18814-0.355,0.40827-0.7908zm-4.885,1.1394c0.36414-0.5688,0.43965-0.7553,0.42559-1.0505-0.0094-0.1975,0.0441-0.4876,0.11891-0.6448,0.1781-0.3742,0.91625-1.161,1.2698-1.3536,0.32473-0.1765,0.44163-0.3114,0.48901-0.5631,0.06736-0.3578,0.45103-1.1729,1.0229-2.173,0.69412-1.2141,0.8162-1.439,1.0644-1.9614,0.1044-0.2196,0.27619-0.5598,0.38179-0.7558,0.17605-0.3267,0.18034-0.3865,0.05155-0.72-0.11668-0.3022-0.11924-0.3886-0.01512-0.5105,0.10582-0.1236,0.17022-0.1389,0.41265-0.098l0.28689,0.047,0.36392-0.7151c0.44754-0.8794,0.69744-1.4247,1.0653-2.3253,0.15625-0.3826,0.41684-0.9434,0.57905-1.2464,0.39993-0.7467,0.61095-1.1924,0.59545-1.2579-0.03808-0.1609-1.4822,0.1292-1.6384,0.3291-0.05599,0.072-0.19665,0.3826-0.31256,0.6906-0.11591,0.3081-0.32455,0.7821-0.46367,1.0532-0.29372,0.5726-0.66906,1.4057-1.2615,2.8-0.23211,0.5462-0.67184,1.4732-0.97716,2.0599-0.30534,0.5867-0.57994,1.1247-0.61026,1.1954-0.03027,0.071-0.40582,0.7039-0.83447,1.4071-0.42868,0.7031-0.8342,1.4361-0.9012,1.6286-0.06698,0.1926-0.18717,0.464-0.26705,0.6034-0.07991,0.1392-0.20342,0.3786-0.27447,0.5319-0.28511,0.6147-0.69134,1.3582-1.0053,1.8399-0.40025,0.6139-0.53559,0.9994-0.44292,1.2616,0.03814,0.108,0.1025,0.3157,0.14297,0.4615,0.1018,0.3668,0.20749,0.29,0.73425-0.533zm7.9143-2.8629c0.17948-0.3289,0.49396-0.86,0.69882-1.1805,1.179-1.8446,1.9948-3.2352,2.1806-3.7173,0.0742-0.1925,0.06365-0.1966-0.37592-0.1457-0.65553,0.076-0.55037-0.056-1.8671,2.3426-0.92254,1.6806-1.0114,1.8983-0.91385,2.2396,0.14851,0.5195,0.14218,0.5584-0.1093,0.6737-0.17564,0.081-0.27549,0.081-0.36896,0.0009-0.11405-0.097-0.14454-0.073-0.27599,0.2219-0.09324,0.2093-0.12376,0.433-0.08273,0.6064,0.03578,0.1512,0.05993,0.4098,0.05368,0.5747-0.01091,0.2886,0.0026,0.2752,0.36153-0.3593,0.2051-0.3625,0.51977-0.928,0.69928-1.2568zm2.3979,0.7881c-0.02878-0.1217-0.07296-0.1474-0.15601-0.091-0.06386,0.043-0.13105,0.082-0.14958,0.087-0.01853,0-0.0208,0.062-0.0051,0.1288,0.01589,0.067,0.1002,0.104,0.18969,0.083,0.11012-0.026,0.14843-0.092,0.12094-0.2078zm8.0827-2.0483c0.16485-0.455,0.15767-0.859-0.02949-1.6555-0.16361-0.6958-0.20063-0.7815-0.325-0.7499-0.07843,0.018-0.24887,0.2948-0.38493,0.6199-0.31512,0.753-0.37388,0.9952-0.27947,1.1528,0.15001,0.2505,0.78356,0.9185,0.85503,0.9015,0.03996-0.01,0.11368-0.1304,0.16386-0.2688zm-15.003,3.136c0.2682-0.4635,0.26826-0.4628-0.04694-0.7844-0.04839-0.049-0.32853,0.4174-0.4757,0.7927-0.07699,0.1963-0.10719,0.3897-0.0671,0.4298,0.14467,0.1445,0.33411,0,0.58974-0.4381zm-0.74639,0.081c0.11122-0.1991,0.19532-0.3912,0.18687-0.427-0.0085-0.036,0.03917-0.077,0.10562-0.093,0.06646-0.016,0.10769-0.084,0.09199-0.1504-0.01589-0.067-0.0024-0.2002,0.02997-0.2961,0.04994-0.1476,0.01576-0.1969-0.22585-0.3254-0.15656-0.083-0.30924-0.1467-0.33926-0.1411-0.07333,0.017-0.78134,1.3097-0.76122,1.3948,0.01911,0.081,0.57466,0.4328,0.65407,0.414,0.03065-0.01,0.14672-0.1762,0.25797-0.3753zm8.4786-2.1382c0.08173-0.2252,0.27386-0.5637,1.3267-2.3383,0.37292-0.6287,0.91944-1.5786,1.2145-2.1111,0.29502-0.5326,0.67364-1.2136,0.84141-1.5132,0.16776-0.2997,0.34527-0.6309,0.39445-0.7361,0.69934-1.496,1.2628-2.8119,1.4522-3.3918,0.0894-0.2738,0.23173-0.6024,0.31631-0.7302,0.08455-0.1279,0.14632-0.2639,0.13728-0.3021-0.009-0.038,0.09868-0.3156,0.23946-0.6161,0.70758-1.51,0.97078-2.1061,1.0784-2.4419,0.12602-0.3932,0.6076-1.3701,1.1231-2.2781,0.17868-0.3148,0.31379-0.6741,0.3113-0.828-0.0025-0.1572-0.03275-0.252-0.07163-0.2247-0.08333,0.059-0.60269,1.0156-0.78709,1.4505-0.07509,0.177-0.17729,0.3921-0.22714,0.478-0.04988,0.086-0.15806,0.3047-0.24045,0.4864-0.08237,0.1817-0.23387,0.4841-0.33659,0.6723-0.10275,0.188-0.24031,0.4885-0.30574,0.6676-0.06539,0.1793-0.30308,0.6585-0.52818,1.065-0.6111,1.1034-0.92405,1.7217-1.2492,2.468-0.34673,0.7962-1.6579,3.4471-1.8674,3.7758-0.08043,0.1262-0.14007,0.2555-0.13252,0.2874,0.0076,0.032-0.10231,0.2523-0.24412,0.4899-0.14179,0.2376-0.31397,0.5636-0.38262,0.7244-0.06863,0.161-0.45743,0.8661-0.86395,1.5673-0.90028,1.5524-0.77625,1.3311-1.2871,2.296-0.36919,0.6975-0.41187,0.832-0.32129,1.0117,0.19255,0.382,0.29093,0.3991,0.40996,0.071zm9.5406-2.2574c0.20402-0.3692,0.15603-0.6463-0.18862-1.0891-0.27744-0.3565-0.33287-0.3904-0.5241-0.3214-0.25148,0.09-0.26629,0.2899-0.08447,1.1242,0.07921,0.3634,0.15351,0.5448,0.22781,0.556,0.24573,0.037,0.45418-0.061,0.56939-0.2697zm-20.907,3.3521c0.20921-0.3537,0.43728-0.7712,0.50676-0.928,0.0695-0.1568,0.26281-0.516,0.4296-0.7981,0.16676-0.2822,0.32586-0.5901,0.35355-0.6843,0.1241-0.4224,0.90212-1.6806,1.0626-1.7186,0.05735-0.014,0.09458-0.065,0.08261-0.1161-0.01197-0.051,0.01834-0.1437,0.06726-0.2073,0.13719-0.1781,1.5447-3.0059,1.8469-3.7106,0.14783-0.3447,0.2861-0.6501,0.30729-0.6784,0.02135-0.028,0.06017-0.1218,0.08667-0.2075,0.10144-0.3282,0.37743-0.985,0.63912-1.521,0.28816-0.5902,0.31157-0.7285,0.11546-0.6821-0.06713,0.016-0.13786-0.043-0.15893-0.1324-0.02118-0.09-0.0918-0.1484-0.15892-0.1325-0.06713,0.016-0.13786-0.043-0.15895-0.1326-0.02095-0.088-0.06644-0.1544-0.10101-0.1463-0.07334,0.017-0.70491,1.215-0.88042,1.6696-0.25639,0.664-0.67111,1.6356-0.75945,1.7792-0.05097,0.083-0.20555,0.4289-0.34351,0.7688-0.71469,1.7611-1.052,2.4794-1.6144,3.4381-0.23894,0.4075-0.52794,0.9351-0.64219,1.1727-0.11424,0.2376-0.4019,0.763-0.63924,1.1678-0.2373,0.4048-0.51258,0.9484-0.61171,1.208s-0.23162,0.5798-0.2944,0.7117c-0.08243,0.1729-0.08587,0.3615-0.01236,0.6779l0.10182,0.4384,0.19774-0.2966c0.10876-0.1632,0.36893-0.5859,0.57819-0.9394zm2.2418-0.2598c-0.23858,0.01-0.47192,0.3702-0.40858,0.6341l0.05793,0.2413,0.24216-0.4399c0.18281-0.3324,0.20941-0.439,0.1085-0.4355zm4.8351-0.5854c0.02891-0.1121,0.07964-0.2324,0.11272-0.2674,0.10544-0.1112-0.08882-0.2933-0.3032-0.284-0.25585,0.011-0.2633,0.04-0.11776,0.4542,0.13051,0.3718,0.22943,0.4029,0.30824,0.097zm8.5936-2.2046c0.09586-0.3812,0.57776-1.3008,0.69634-1.3289,0.10184-0.024,0.55429-0.8399,1.0046-1.8112,0.19487-0.4203,0.49143-1.0091,0.65907-1.3082,1.174-2.0955,1.5959-2.9501,2.1388-4.3313,0.24136-0.614,0.62457-1.4346,0.71982-1.5415,0.06442-0.072-0.11813-0.8875-0.21151-0.9451-0.02956-0.019-0.09356,0.067-0.14242,0.1903-0.04886,0.1229-0.13529,0.2986-0.19201,0.3905-0.05659,0.092-0.21752,0.4553-0.3573,0.8077-0.1398,0.3522-0.31827,0.7536-0.39663,0.8918-0.07836,0.1383-0.14763,0.3196-0.15392,0.403-0.0062,0.084-0.04528,0.1595-0.08659,0.1693-0.04132,0.01-0.06637,0.055-0.05578,0.1,0.01888,0.08-0.14765,0.491-0.61866,1.53-0.12387,0.2731-0.28342,0.6444-0.35459,0.825-0.07114,0.1806-0.28746,0.6528-0.48069,1.0493-0.1932,0.3967-0.44727,0.9735-0.56457,1.2819-0.11727,0.3085-0.43072,0.9516-0.69656,1.4292-0.54811,0.9847-1.2179,2.4259-1.1874,2.5548,0.04036,0.1706,0.19788-0.029,0.27992-0.3565zm8.5014-1.9622c-0.03908-0.074-0.04631-0.024-0.01666,0.1086,0.0298,0.1334,0.0617,0.1935,0.07084,0.1337,0.0092-0.06-0.0152-0.1687-0.05425-0.2423zm-13.012,2.573c0.19325-0.3581,0.61282-1.0986,0.9324-1.6455,0.49197-0.8417,0.834-1.4813,1.9043-3.5612,0.06853-0.1332,0.34065-0.6951,0.6047-1.2488,0.26406-0.5537,0.62412-1.2941,0.80012-1.6453,0.17598-0.3514,0.43795-0.8917,0.5821-1.201,0.14417-0.3092,0.41372-0.8277,0.59902-1.1522,0.18528-0.3246,0.477-0.9284,0.64822-1.342,0.17124-0.4136,0.48354-1.0489,0.69398-1.4119,0.38114-0.6571,0.4597-0.822,1.2738-2.6742,0.37337-0.8494,0.41831-1.0174,0.34929-1.3044l-0.07932-0.3296-0.20347,0.3883c-0.11188,0.2137-0.397,0.8154-0.63355,1.3374-0.2366,0.5218-0.53376,1.1089-0.66043,1.3044-0.34112,0.5268-0.90319,1.9112-0.85636,2.1092,0.0268,0.1132-0.03226,0.2275-0.17279,0.3341-0.11736,0.09-0.34599,0.4481-0.50793,0.7977-0.29402,0.6348-0.93671,1.8327-1.5198,2.8327-0.16974,0.291-0.33456,0.6216-0.3663,0.7346-0.03174,0.1131-0.10505,0.3766-0.1629,0.5858-0.13139,0.4751-0.50726,1.323-0.85132,1.9206-0.14434,0.2508-0.46189,0.8235-0.70565,1.2728s-0.69645,1.202-1.006,1.6728c-0.30948,0.471-0.77544,1.2019-1.0354,1.6245-0.46495,0.7554-0.47027,0.7722-0.32341,1.0121,0.08214,0.1341,0.17654,0.2938,0.20978,0.3548,0.04514,0.083,0.06987,0.082,0.09795,0,0.02074-0.061,0.19557-0.4057,0.38882-0.7639zm6.4912-1.5636c0.13252-0.3353,0.24668-0.6977,0.25373-0.8051,0.007-0.1075,0.09751-0.2708,0.20106-0.3628,0.20546-0.1828,0.31616-0.3687,0.64992-1.0922,0.12111-0.2626,0.40097-0.7882,0.62194-1.1679,0.22093-0.3797,0.50688-0.9904,0.63538-1.3571,0.1285-0.3668,0.36719-0.9092,0.5304-1.2054,0.16322-0.2963,0.33607-0.6552,0.38408-0.7978,0.04803-0.1425,0.171-0.4374,0.27329-0.6553,0.16517-0.352,0.17172-0.4392,0.05867-0.7795-0.06999-0.2107-0.15141-0.4731-0.18088-0.583-0.05298-0.1974-0.05613-0.1955-0.24602,0.1456-0.10582,0.1899-0.2404,0.466-0.299,0.6138-0.20616,0.5194-0.48449,1.1443-0.57531,1.2917-0.05051,0.082-0.22029,0.4475-0.3774,0.8123-0.1571,0.3648-0.43251,0.9114-0.61203,1.2146-0.64281,1.0862-1.0419,1.8572-1.4709,2.8419-0.11606,0.2663-0.33737,0.6946-0.49184,0.9518-0.26757,0.4457-0.27526,0.4872-0.16278,0.8814,0.1234,0.4325,0.44446,0.8923,0.52186,0.7473,0.02482-0.046,0.15337-0.3587,0.28588-0.6941zm-2.1857,0.4319c0.06774-0.1331,0.2376-0.4794,0.37745-0.7698,0.13984-0.2904,0.4404-0.8691,0.66787-1.286,0.2275-0.4169,0.51552-0.9901,0.64005-1.2738s0.50034-1.1376,0.83513-1.8975c0.57634-1.3083,0.9433-2.1958,1.7709-4.2824,0.1973-0.4974,0.46413-1.1087,0.59296-1.3583l0.23424-0.454-0.16974-0.7095-0.16974-0.7096-0.11286,0.2394c-0.0621,0.1315-0.30192,0.7243-0.53296,1.3169-0.23106,0.5926-0.54512,1.2985-0.69795,1.5685-0.15282,0.2701-0.33401,0.6486-0.40262,0.8412-0.06862,0.1926-0.33052,0.7138-0.58196,1.1584-0.25144,0.4445-0.56821,1.1214-0.70389,1.5044-0.3003,0.8476-0.75428,1.8778-0.8365,1.8983-0.03313,0.01-0.04592,0.041-0.02856,0.072,0.03141,0.056-0.09008,0.39-0.48707,1.3428-0.1118,0.2682-0.3974,0.8406-0.63469,1.2718-0.23728,0.4312-0.5316,0.9673-0.65405,1.1912s-0.21455,0.4412-0.20468,0.483c0.0099,0.042,0.17055,0.2054,0.35708,0.364l0.33916,0.2882,0.13967-0.2784c0.07682-0.1531,0.19511-0.3873,0.26287-0.5202zm-10.902,2.7495c-0.02683-0.026-0.1138-0.1443-0.19311-0.261l-0.14418-0.212-0.06423,0.228c-0.06838,0.2422-0.01597,0.6178,0.0958,0.6868,0.08182,0.051,0.37477-0.3729,0.30573-0.4418zm17.499-4.7961,0.34954-0.6536-0.19209-0.8509c-0.10558-0.4679-0.23215-1.143-0.28116-1.5002-0.10726-0.7815-0.15979-0.7622-0.44248,0.1633-0.11104,0.3631-0.2788,0.8294-0.37276,1.0363-0.24891,0.5479-0.73152,1.781-0.71854,1.8359,0.006,0.025,0.17339,0.077,0.37172,0.1137,0.20088,0.037,0.46751,0.1692,0.60214,0.2982,0.13284,0.1272,0.26239,0.2269,0.28786,0.2214,0.0255-0.01,0.20364-0.304,0.39588-0.6635zm-10.145,0.3893c0.43142-0.7034,0.77846-1.3041,0.77118-1.3348-0.0071-0.03-0.28555,0.068-0.61817,0.2213l-0.605,0.2769-0.51756,0.9283c-0.28463,0.5107-0.71424,1.2617-0.95463,1.6691-0.3929,0.6655-0.41782,0.7388-0.24646,0.7238,0.10481-0.01,0.24958,0.042,0.32155,0.1128,0.1206,0.1193,0.16765,0.072,0.59782-0.5944,0.25681-0.3981,0.8199-1.2994,1.2513-2.0028zm-8.4225,4.1383c0.11297-0.079,0.27947-0.1679,0.37026-0.1961,0.17051-0.053,0.36996-0.3808,0.73197-1.2019,0.11513-0.2611,0.22826-0.4984,0.25141-0.5273,0.0231-0.029,0.09597-0.1885,0.16183-0.3546,0.06584-0.1662,0.19292-0.4302,0.28239-0.5866,0.38494-0.6728,0.54758-0.9943,0.53339-1.0542-0.0083-0.035,0.0883-0.2739,0.21477-0.5302,0.12646-0.2564,0.2187-0.5072,0.20499-0.5573-0.01372-0.05-0.22479-0.2262-0.46908-0.3914l-0.44412-0.3002-0.42379,0.8417c-0.43778,0.8694-1.0228,1.9383-1.4261,2.6057-0.12721,0.2104-0.32241,0.6394-0.43379,0.9532-0.1114,0.3138-0.25383,0.6845-0.31652,0.8236-0.13973,0.3103-0.11724,0.44,0.06839,0.3948,0.14011-0.034,0.96811-1.3464,1.4072-2.2306,0.12675-0.2552,0.28438-0.5412,0.35031-0.6355,0.06583-0.095,0.19001-0.2978,0.2757-0.4524,0.34855-0.6283,0.82036-1.3559,0.86239-1.33,0.02475,0.016-0.15354,0.3551-0.39593,0.7554-0.59336,0.9795-0.83119,1.4065-1.1644,2.0896-0.15473,0.3173-0.45516,0.8739-0.66762,1.2367-0.21244,0.363-0.35321,0.693-0.31284,0.7333,0.09063,0.091,0.08855,0.091,0.33808-0.09zm5.0182-2.4501c0.12908-0.2924,0.4563-0.8918,0.90497-1.6573,0.17494-0.2986,0.31142-0.571,0.30323-0.6057-0.0081-0.034-0.1373-0.034-0.28681,0-0.14952,0.035-0.38411,0.068-0.52134,0.073-0.25943,0.01-0.25605,0.01-0.77661,0.9414-0.37634,0.6769-1.2955,2.6778-1.2446,2.7093,0.03107,0.019,0.20342,0.0001,0.38308-0.042,0.17967-0.043,0.35524-0.049,0.3905-0.013,0.05892,0.059,0.59-0.8223,0.84762-1.4062zm-9.0467,2.3937c0.15016-0.3397,0.4415-0.8871,0.64741-1.2164,0.20592-0.3294,0.43455-0.728,0.50813-0.8857,0.07356-0.1578,0.3553-0.6646,0.62609-1.1263,0.4881-0.8322,0.84782-1.5383,0.92983-1.8249,0.02347-0.082,0.06222-0.1726,0.08627-0.2016,0.02422-0.028,0.08432-0.187,0.13401-0.3507,0.04967-0.1639,0.11875-0.3045,0.1535-0.3128,0.03474-0.01,0.05444-0.052,0.04338-0.099-0.02233-0.094,0.47556-1.2374,0.69629-1.598,0.07992-0.1305,0.13788-0.2686,0.12884-0.3069-0.009-0.038,0.03172-0.149,0.09062-0.2461,0.10454-0.1724,0.37221-0.8256,0.47607-1.1621,0.02874-0.092,0.19057-0.4119,0.35993-0.7095,0.41694-0.7331,0.4322-0.8147,0.22098-1.1841-0.09668-0.1691-0.20363-0.3247-0.23764-0.3456-0.03397-0.021-0.16065,0.169-0.28136,0.4224-0.12072,0.2533-0.28855,0.5732-0.37296,0.7107-0.23154,0.3773-1.4159,2.8131-1.4926,3.0696-0.03688,0.1234-0.15359,0.3834-0.2594,0.5778s-0.26496,0.54-0.35365,0.7682c-0.08868,0.2282-0.24873,0.6079-0.35569,0.8436-0.10696,0.2358-0.20094,0.4973-0.20886,0.581-0.0078,0.084-0.04641,0.1599-0.08555,0.1692-0.03913,0.01-0.0617,0.057-0.05019,0.1054,0.01151,0.049-0.21912,0.572-0.51246,1.1632-0.29335,0.5913-0.63424,1.2902-0.75754,1.5533-0.1233,0.263-0.25626,0.5242-0.29547,0.5802-0.22125,0.3163-0.51973,1.3013-0.47741,1.5755,0.09155,0.5931,0.15961,0.5347,0.63952-0.5506zm7.3359-1.3777c0.16866-0.264,0.37198-0.6492,0.4518-0.856s0.23181-0.5351,0.33774-0.7295c0.26674-0.4895,0.73305-1.4843,0.72052-1.5373-0.0058-0.024-0.15495-0.056-0.33189-0.071l-0.32159-0.028-0.54671,0.9415c-0.84253,1.4508-1.5944,2.8045-1.5834,2.8508,0.0055,0.023,0.18529,0.015,0.39963-0.018s0.42973-0.063,0.4785-0.066c0.04923,0,0.22676-0.2216,0.39541-0.4857zm-1.0174-0.3106c0.84865-1.4109,1.5977-2.8322,1.541-2.9238-0.02608-0.042-0.20834-0.1227-0.40497-0.1787-0.43887-0.1253-0.53994-0.038-0.80831,0.6965-0.09958,0.2727-0.35961,0.8216-0.57782,1.22-0.33814,0.6174-1.0114,2.1315-0.9893,2.2249,0.0039,0.017,0.11027,0.021,0.2367,0.012,0.1262-0.01,0.26557-0.022,0.30979-0.025,0.04491-0.0003,0.35605-0.4647,0.69308-1.025zm14.673-3.5973c0.21374-0.5067,0.423-0.9918,0.46499-1.078,0.04205-0.086,0.13491-0.357,0.20645-0.6017,0.07155-0.2448,0.23946-0.7647,0.37313-1.1554,0.22719-0.6642,0.23582-0.7563,0.13269-1.4136-0.06066-0.3867-0.13082-0.6983-0.15589-0.6923-0.02507,0.01-0.09527,0.1601-0.15602,0.3426-0.06074,0.1825-0.1681,0.4295-0.23857,0.5488-0.25974,0.4396-0.713,1.3804-0.86108,1.7872-0.1738,0.4776-0.35929,0.8609-0.79427,1.6413-0.16782,0.3012-0.3396,0.6445-0.38174,0.7629-0.04212,0.1186-0.1511,0.3607-0.24218,0.5381l-0.1656,0.3225,0.21015,0.027c0.11575,0.016,0.30061-0.013,0.41095-0.062,0.11057-0.049,0.27691-0.065,0.3692-0.039,0.3391,0.1028,0.44029-0.011,0.82763-0.929zm-22.768,5.2594c-0.03547-0.05-0.04293-0.0001-0.01682,0.1102,0.02623,0.1109,0.0552,0.1518,0.06448,0.091,0.0092-0.061-0.01222-0.1514-0.04766-0.2015zm1.3469-0.9141c0.17997-0.3349,0.44298-0.866,0.58447-1.1803,0.14152-0.3141,0.35762-0.748,0.48026-0.9641,0.12262-0.2161,0.29632-0.5825,0.386-0.8143,0.08969-0.2317,0.18417-0.4646,0.20998-0.5175,0.08975-0.184,0.51248-1.1728,0.71457-1.6715,0.11186-0.2761,0.29299-0.6953,0.40249-0.9318,0.10951-0.2365,0.25392-0.5503,0.32087-0.6974,0.16858-0.3704,0.56336-1.1658,0.89417-1.8015,0.15268-0.2935,0.35906-0.7346,0.45864-0.9804,0.09957-0.2457,0.20338-0.4521,0.23071-0.4586,0.02735-0.01,0.14166-0.2238,0.25401-0.4832,0.20759-0.4788,0.19759-0.8804-0.02739-1.1006-0.12062-0.1181-0.09371-0.1583-0.54121,0.8077-0.18251,0.3941-0.45162,0.94-0.59796,1.2134-0.14637,0.2732-0.38352,0.7694-0.527,1.1027s-0.42142,0.9381-0.61765,1.3439c-0.19621,0.4058-0.50841,1.0675-0.69379,1.4703-0.18535,0.4029-0.36477,0.7829-0.39874,0.8444-0.03396,0.062-0.23276,0.4775-0.44177,0.9247-0.34831,0.745-0.46435,0.9854-0.8996,1.8636-0.08115,0.1639-0.2035,0.4451-0.27188,0.625-0.06837,0.1798-0.22278,0.5279-0.34318,0.7734-0.19029,0.3882-0.20615,0.5001-0.12144,0.8581,0.05356,0.2263,0.12458,0.4052,0.15778,0.3972,0.03323-0.01,0.20765-0.2883,0.38764-0.6232zm-0.07899-1.9375c0.32864-0.6977,0.71502-1.5259,0.8586-1.8405,0.14357-0.3147,0.30654-0.6403,0.36214-0.7236,0.05567-0.083,0.20386-0.3863,0.32946-0.6734,0.12559-0.287,0.27738-0.6099,0.33729-0.7177,0.05991-0.1077,0.28013-0.5713,0.48937-1.0301,0.20923-0.4589,0.40835-0.8409,0.44249-0.849,0.03415-0.01,0.20442-0.364,0.37837-0.7911,0.17395-0.4272,0.3477-0.8223,0.38611-0.8781,0.03829-0.056,0.14367-0.2655,0.23393-0.4659,0.09029-0.2003,0.24607-0.5434,0.34621-0.7623,0.35453-0.7753,0.56368-1.3715,0.50253-1.4326-0.03408-0.034-0.18856-0.3349-0.3433-0.6685-0.15477-0.3338-0.31789-0.6301-0.36254-0.6586-0.04462-0.029-0.14671,0.091-0.22681,0.2662-0.19073,0.4169-1.0301,2.4191-1.0944,2.6102-0.086,0.256-0.90914,2.1265-1.1419,2.5949-0.12219,0.2459-0.21628,0.4721-0.20909,0.5024,0.0071,0.03-0.20676,0.5821-0.47544,1.2259-0.26868,0.6439-0.48302,1.1939-0.47625,1.2225,0.01036,0.044-0.39463,1.0897-0.54011,1.395-0.16702,0.3506-0.5738,1.3729-0.64108,1.6113-0.0542,0.1921-0.03942,0.4625,0.04474,0.8182,0.06912,0.2921,0.14288,0.5271,0.1639,0.5222,0.02101-0.01,0.3071-0.5798,0.63575-1.2774zm24.096-5.7014c-0.03548-0.05-0.04293-0.0001-0.01682,0.1103,0.02623,0.1108,0.05521,0.1517,0.06446,0.091,0.0092-0.061-0.01219-0.1513-0.04764-0.2014zm-0.0953-0.4028c-0.03548-0.05-0.04293-0.0001-0.0168,0.1104,0.0262,0.1107,0.05521,0.1517,0.06446,0.091,0.0092-0.061-0.01222-0.1514-0.04766-0.2015zm-24.601,4.8215c0.04341-0.01,0.06741-0.067,0.05366-0.1255-0.01381-0.058,0.04555-0.2139,0.13212-0.3448,0.08655-0.1309,0.2612-0.5521,0.38812-0.936,0.12693-0.3838,0.35646-0.9956,0.5101-1.3593,0.15362-0.3639,0.31953-0.7788,0.36865-0.9223,0.04915-0.1434,0.13505-0.3398,0.19094-0.4364,0.15899-0.275,0.30211-0.5864,0.29099-0.6334-0.01105-0.047,0.02641-0.1334,0.24535-0.5637,0.30637-0.6024,0.87675-1.8834,0.86351-1.9394-0.0076-0.032,0.03299-0.1436,0.09021-0.2478,0.05726-0.104,0.17404-0.3783,0.25965-0.6092,0.08562-0.2307,0.16981-0.4419,0.18709-0.4695,0.07974-0.1267,0.33184-0.7533,0.32118-0.7984-0.0067-0.028,0.07625-0.248,0.18403-0.4895,0.25512-0.5716,0.2498-0.7296-0.04048-1.2047l-0.24144-0.3952-0.1073,0.2309c-0.059,0.127-0.23828,0.6148-0.39838,1.0842-0.30762,0.9021-0.99981,2.5318-1.1729,2.7615-0.172,0.2283-0.15016,0,0.04101-0.4247,0.60262-1.3478,1.059-2.6019,1.3931-3.8275,0.10529-0.3863,0.10068-0.4334-0.06468-0.66-0.17601-0.2413-0.17946-0.2419-0.2952-0.051-0.0645,0.1057-0.24638,0.5869-0.40433,1.0687-0.15796,0.4818-0.41865,1.2088-0.57929,1.6156-0.16061,0.4069-0.31444,0.8069-0.34182,0.8889-0.02726,0.082-0.21772,0.5209-0.42308,0.975s-0.43219,0.9862-0.50408,1.1824-0.20534,0.5276-0.29657,0.7363c-0.09122,0.2087-0.20834,0.4852-0.26025,0.6144s-0.1728,0.365-0.26858,0.5241c-0.09583,0.159-0.19079,0.3728-0.21102,0.4752-0.05393,0.2727-0.22483,0.7645-0.50394,1.4503-0.33408,0.8209-0.38959,1.1103-0.31946,1.666,0.05569,0.4412,0.06588,0.4607,0.14816,0.2828,0.16214-0.3505,0.69243-1.6867,0.96862-2.4406,0.33368-0.911,0.59961-1.6009,0.67745-1.7577,0.11917-0.24,0.69863-1.5037,0.87402-1.9061,0.06275-0.1439,0.15348-0.2486,0.20166-0.2326,0.07939,0.027-0.19082,0.7798-0.41556,1.1586-0.10512,0.1773-0.24168,0.4973-0.38212,0.8957-0.054,0.153-0.17844,0.4719-0.27653,0.7085-0.09812,0.2366-0.28429,0.7016-0.41371,1.0334-0.12941,0.3319-0.26944,0.6597-0.3112,0.7282-0.04155,0.07-0.08174,0.2025-0.08888,0.2975-0.0071,0.095-0.04677,0.1807-0.08808,0.1905-0.04132,0.01-0.06545,0.059-0.05416,0.1063,0.01151,0.049-0.05218,0.246-0.14172,0.4376-0.08957,0.1916-0.23744,0.6181-0.32864,0.9476-0.13861,0.5006-0.14707,0.6785-0.05149,1.0825,0.06288,0.2658,0.14417,0.5017,0.18061,0.5242,0.03639,0.022,0.12686-0.1649,0.20096-0.4162,0.07408-0.2513,0.1702-0.4654,0.21361-0.4756zm9.7365-1.8573c0.04268-0.092,0.15985-0.378,0.26021-0.6357,0.10036-0.2576,0.27081-0.626,0.37882-0.8186,0.10798-0.1926,0.25796-0.4941,0.33333-0.6699,0.07534-0.1759,0.18497-0.4001,0.24361-0.4982,0.05864-0.098,0.10006-0.2062,0.09203-0.2401-0.0081-0.034,0.09882-0.2794,0.23746-0.5454,0.37065-0.7108,0.70679-1.5772,0.6683-1.7226-0.05741-0.217-0.42706-0.5842-0.50462-0.5013-0.10247,0.1095-0.72696,1.4616-0.94583,2.0481-0.1574,0.4218-0.6378,1.4363-1.0776,2.276-0.22116,0.4222-0.58596,1.3118-0.58386,1.4239,0.0019,0.1012,0.31541,0.1376,0.66597,0.078,0.08602-0.01,0.18954-0.1014,0.2322-0.1938zm1.3239-0.6541c0.14107-0.302,0.30727-0.7046,0.36938-0.8946,0.06205-0.1902,0.14614-0.3536,0.18683-0.3632,0.0407-0.01,0.06431-0.058,0.05279-0.1071-0.03143-0.1328,0.30414-0.8479,0.83409-1.777,0.16092-0.2822,0.13309-0.4476-0.1279-0.7605l-0.19455-0.2334-0.18943,0.3324c-0.22016,0.3861-0.79404,1.6025-0.85804,1.8186-0.05359,0.181-0.29933,0.7093-0.63509,1.3655-0.26795,0.5235-0.56907,1.247-0.55097,1.3235,0.006,0.025,0.20111,0.0007,0.43346-0.055,0.41815-0.1,0.42453-0.1107,0.67922-0.6497zm1.0622,0.011c0.31746-0.2128,0.71582-0.8512,0.7609-1.2195,0.03684-0.301-0.08772-1.6778-0.15555-1.7196-0.0603-0.037-0.52007,0.7256-0.77975,1.2936-0.09587,0.2099-0.20673,0.4474-0.2463,0.5281-0.03943,0.081-0.15919,0.3829-0.2658,0.6717s-0.2365,0.5816-0.28864,0.6508c-0.0522,0.069-0.08744,0.1569-0.07842,0.195,0.02256,0.095,0.69516-0.1645,1.0536-0.4001zm-3.534,0.6414c0.0046-0.046,0.09449-0.2489,0.19943-0.4512,0.43412-0.8362,1.147-2.3406,1.3464-2.8413,0.11734-0.2949,0.4196-0.9948,0.67166-1.5555,0.25205-0.5607,0.45308-1.0456,0.44676-1.0775-0.0065-0.032-0.10082-0.082-0.20993-0.1107-0.22573-0.06-0.1996-0.1015-0.85292,1.3585-0.21071,0.4709-0.45275,0.9875-0.53789,1.1479-0.54251,1.0229-0.95092,1.8181-1.0442,2.0332-0.06964,0.1608-0.08737,0.1693-0.11661,0.055-0.01886-0.074-0.0095-0.1522,0.02085-0.175,0.06462-0.048,0.727-1.4207,0.82308-1.705,0.03622-0.1062,0.12435-0.2293,0.19616-0.2723,0.07165-0.044,0.12297-0.1103,0.11374-0.1493-0.02728-0.1153,0.29765-0.9195,0.37929-0.9388,0.04116-0.01,0.06333-0.066,0.04887-0.1275-0.02342-0.099,0.05334-0.3027,0.41469-1.1004,0.1053-0.2325,0.10246-0.2537-0.03661-0.2725-0.11046-0.015-0.2575,0.1596-0.54945,0.6527-0.21922,0.3704-0.43306,0.7646-0.47519,0.8762-0.18171,0.4819-1.0983,2.4927-1.3418,2.9439-0.43429,0.8047-0.63846,1.2466-0.61798,1.338,0.01027,0.047,0.1408,0.1547,0.28939,0.239,0.45466,0.2579,0.81333,0.3147,0.83208,0.1316zm8.0855-4.3194c0.25664-0.4466,0.46432-0.8227,0.46149-0.8357-0.0032-0.014,0.053-0.1218,0.12404-0.242,0.07105-0.1201,0.28065-0.5367,0.46576-0.9257l0.33658-0.7073-0.30256-0.098-0.30257-0.098-0.25824,0.476c-1.1946,2.2014-1.2678,2.3746-1.1981,2.837,0.03646,0.2419,0.09796,0.4322,0.13664,0.4231,0.0387-0.01,0.28033-0.3822,0.53695-0.8288zm-16.805,1.4757c0.14377-0.3683,0.36037-0.8672,0.48135-1.1086,0.12103-0.2412,0.27953-0.5984,0.35225-0.7937,0.07274-0.1952,0.20723-0.4875,0.29891-0.6495,0.09162-0.1622,0.27696-0.5586,0.4118-0.8812,0.13487-0.3225,0.28966-0.6586,0.34402-0.7467,0.05441-0.088,0.08909-0.2029,0.07718-0.2552-0.01243-0.053,0.06025-0.273,0.16037-0.4905,0.18733-0.4068,0.37504-0.931,0.62683-1.7509,0.14929-0.486,0.20295-0.6219,0.5983-1.5155,0.12954-0.2928,0.22943-0.5581,0.22195-0.5897-0.0076-0.032,0.07617-0.2095,0.18586-0.3953,0.46061-0.7799,0.81129-1.6519,0.69366-1.7245-0.03127-0.019-0.19112,0-0.35531,0.036-0.26606,0.063-0.34355,0.1491-0.71409,0.7865-0.25188,0.4339-0.46658,0.9454-0.54513,1.2986-0.07131,0.3203-0.20004,0.7064-0.2861,0.8578-0.08604,0.1515-0.15276,0.291-0.14825,0.31,0.03435,0.1452-0.46072,1.4317-1.1151,2.8976-0.34454,0.772-0.78247,1.8516-0.98474,2.4274-0.21718,0.6186-0.78593,1.9775-1.226,2.9294-0.07845,0.1698-0.18091,0.2689-0.27548,0.2667-0.13673,0-0.13281,0.062,0.04634,0.7265,0.10827,0.4015,0.20412,0.7415,0.21294,0.7554,0.0089,0.014,0.16477-0.3675,0.34655-0.8476,0.18179-0.48,0.44816-1.1741,0.5919-1.5425zm16.629-3.1c0.55889-0.9577,1.0194-1.9655,0.92475-2.024-0.10211-0.063,0.10976-0.5052,0.25891-0.5405,0.07986-0.019,0.20511-0.139,0.2785-0.2661l0.13328-0.2318-0.48134,0.016c-0.26467,0.01-0.52532,0.027-0.57908,0.039-0.05377,0.013-0.36624,0.5173-0.69438,1.1212-0.95394,1.7557-0.91168,1.6552-0.80178,1.9014,0.05431,0.1217,0.13626,0.3798,0.18213,0.5736,0.04584,0.1938,0.12138,0.3434,0.16787,0.3324,0.04647-0.011,0.32142-0.4261,0.61104-0.9222zm-3.7868,0.4755c-0.07133-0.081-0.14518-0.1215-0.16416-0.091-0.0189,0.031,0.02454,0.1002,0.0964,0.1545,0.18609,0.1402,0.21992,0.1084,0.06787-0.063zm-13.877,2.9718c0.08337-0.1952,0.2506-0.5314,0.37164-0.7472,0.22421-0.3995,0.86024-1.9352,1.1128-2.6868,0.07676-0.2284,0.26419-0.6745,0.41649-0.9916,0.15231-0.317,0.30188-0.6285,0.33238-0.6922,0.03048-0.064,0.04843-0.1456,0.03984-0.1819-0.0087-0.037,0.03469-0.1365,0.0962-0.2225,0.0614-0.087,0.16028-0.2752,0.21948-0.4205,0.0592-0.1452,0.13648-0.3144,0.17173-0.3761,0.03522-0.062,0.12376-0.3175,0.19668-0.5687,0.13691-0.4717,0.22646-0.7423,0.53422-1.6149,0.09902-0.2806,0.20392-0.65,0.23314-0.8206,0.0292-0.1707,0.16592-0.5013,0.30379-0.7347,0.13788-0.2334,0.24453-0.4504,0.23702-0.4821-0.0076-0.032,0.04811-0.1202,0.12361-0.1966,0.20714-0.2092,0.12941-0.3196-0.15629-0.2219-0.22114,0.075-0.31097,0.2198-0.70368,1.1287-0.44815,1.0373-0.78674,1.7356-1.2605,2.6-0.13673,0.2496-0.31397,0.6279-0.39386,0.8408-0.07985,0.213-0.24912,0.6001-0.3761,0.8603-0.12701,0.2601-0.26596,0.5675-0.30882,0.6829-0.08069,0.2174-0.75755,1.9711-1.3401,3.4724-0.27444,0.7072-0.3237,0.9343-0.27678,1.2759,0.08402,0.6115,0.19644,0.6371,0.42702,0.097zm8.8564-2.4147c0.11767-0.1681,0.24478-0.6955,0.16292-0.6762-0.12593,0.03-0.46371,0.346-0.50873,0.4763-0.05133,0.1485,0.02784,0.5225,0.12307,0.5813,0.03791,0.023,0.08734-0.031,0.11011-0.1185,0.02254-0.089,0.07318-0.207,0.11255-0.2632zm8.6781-3.446,0.32718-0.6198-0.54468-0.3214c-0.32353-0.191-0.57933-0.2897-0.62999-0.2432-0.12763,0.1175-0.80994,1.5172-0.99299,2.0376l-0.16005,0.4551,0.44259,0.3281,0.44259,0.3281,0.39409-0.6723c0.21674-0.3699,0.54131-0.9513,0.72126-1.2922zm-17.798,4.3047c0.15207-0.3975,0.45443-1.1821,0.6719-1.7437,0.21747-0.5615,0.39219-1.0346,0.38827-1.0511-0.0039-0.017,0.11358-0.297,0.26116-0.6229,0.14757-0.3259,0.34821-0.8005,0.4459-1.0544,0.09765-0.2541,0.40431-0.9007,0.68139-1.4371,0.27709-0.5364,0.58916-1.1707,0.69345-1.4096,0.1043-0.239,0.33397-0.7627,0.51037-1.1639,0.17639-0.4013,0.29019-0.7601,0.25289-0.7973-0.08744-0.087-0.43437-0.01-0.60134,0.1423-0.14528,0.1279-1.0166,1.8235-0.99168,1.929,0.01336,0.056-0.1495,0.4193-0.70044,1.5568-0.04512,0.093-0.0776,0.1876-0.07223,0.2103,0.01796,0.076-0.26377,0.8201-0.47553,1.258-0.11501,0.2376-0.30334,0.6459-0.41856,0.907-0.11521,0.2611-0.23711,0.4941-0.27086,0.5177-0.0338,0.023-0.05299,0.078-0.04279,0.1214,0.01635,0.069-0.23393,0.6727-0.40865,0.9857-0.03439,0.062-0.15691,0.3786-0.2723,0.7044-0.18076,0.5106-0.19683,0.6688-0.11618,1.1444,0.05149,0.3036,0.11502,0.5461,0.1412,0.5389,0.02621-0.01,0.17198-0.3384,0.32405-0.7359zm15.796-3.6307c0.05569-0.1949,0.31537-0.8044,0.5771-1.3545,0.47521-0.9983,0.47576-1.0006,0.36418-1.4722-0.06145-0.2597-0.1336-0.4672-0.16032-0.461-0.02669,0.01-0.16416,0.2589-0.30546,0.5614-0.14133,0.3023-0.35562,0.7262-0.4762,0.9419-0.36296,0.649-0.902,1.7687-0.8859,1.8402,0.02219,0.098,0.63165,0.3881,0.7146,0.3399,0.03896-0.022,0.11635-0.2007,0.17199-0.3957zm-7.3705,1.5058c0.13106-0.233,0.32049-0.6584,0.42092-0.9453s0.27455-0.689,0.38685-0.8938c0.11232-0.2046,0.31454-0.6661,0.44936-1.0255l0.24517-0.6533-0.30062,0.044c-0.25188,0.037-0.34354,0.108-0.56613,0.4315-0.30311,0.4422-0.86977,1.6191-0.96712,2.0086-0.03598,0.1439-0.12532,0.3487-0.19849,0.4551-0.07334,0.1058-0.11406,0.2737-0.09078,0.3721,0.0665,0.2811,0.25601,0.6598,0.3223,0.6441,0.03311-0.01,0.16747-0.2048,0.29855-0.4378zm12.233-3.3955c-0.0078-0.033-0.18004,0.054-0.38241,0.1945-0.20242,0.1404-0.38079,0.259-0.39656,0.2627-0.11376,0.027-0.03578,0.3177,0.11263,0.4199,0.17714,0.122,0.18464,0.1161,0.43058-0.3457,0.13767-0.2584,0.24375-0.4976,0.23576-0.5314zm-5.2326,0.3523c0.52002-0.9575,1.0774-2.2938,1.2258-2.9388,0.08455-0.3673,0.2837-0.8084,0.57212-1.2675,0.38559-0.6137,0.42188-0.7101,0.28263-0.7503-0.08788-0.025-0.17512-0.1111-0.19382-0.1901-0.06486-0.2741-0.16015-0.2183-0.40169,0.2352-0.13352,0.2509-0.34784,0.635-0.47626,0.8536-0.26101,0.4445-0.78506,1.6061-1.0073,2.233-0.10654,0.3005-0.1229,0.5218-0.06091,0.8225,0.09697,0.4703,0.0657,0.6285-0.1335,0.6757-0.07713,0.018-0.1976-0.0006-0.26799-0.043-0.10299-0.061-0.18545,0.029-0.42707,0.4626-0.3159,0.5684-0.59084,1.2287-0.526,1.2631,0.02124,0.011,0.16093,0.052,0.31066,0.092l0.2721,0.072,0.23787-0.4326c0.13085-0.2378,0.39782-0.7271,0.59333-1.0871zm-5.675,2.0009c0.61858-0.4268,1.3336-1.5056,1.5868-2.3942,0.09335-0.3277,0.1534-0.6059,0.13346-0.6181-0.10742-0.066-1.1325,0.2125-1.223,0.3325-0.1004,0.1331-0.42074,0.9229-0.40368,0.995,0.0048,0.02-0.10812,0.2846-0.25106,0.5867-0.63812,1.349-0.7584,1.7488-0.46013,1.5301,0.06969-0.051,0.34771-0.2454,0.61768-0.4317zm4.1961-1.2392c0.10531-0.2456,0.20647-0.4694,0.22482-0.497,0.01828-0.028,0.11778-0.2351,0.22102-0.4606,0.17599-0.3846,0.17714-0.4146,0.01855-0.4815-0.15012-0.063-0.2076,0-0.51182,0.5294-0.1885,0.3304-0.41621,0.7471-0.50601,0.9262-0.15724,0.3134-0.15668,0.3283,0.01465,0.4005,0.27047,0.1141,0.33141,0.067,0.53881-0.417zm-14.361,2.97c0.11219-0.2927,0.27482-0.656,0.36137-0.8076,0.08653-0.1516,0.15234-0.2967,0.14617-0.3228-0.006-0.025,0.1275-0.3141,0.29706-0.64,0.16951-0.3261,0.38035-0.7629,0.46848-0.9709,0.08812-0.2079,0.18605-0.397,0.21761-0.42,0.0316-0.023,0.04946-0.076,0.0397-0.1167-0.02699-0.1141,0.374-1.1179,0.60921-1.5252,0.11484-0.1988,0.19302-0.3576,0.17371-0.3531-0.05192,0.012,0.4249-1.1791,0.70845-1.7702,0.26822-0.5592,0.27825-0.6331,0.08914-0.6587-0.13501-0.018-0.47476,0.353-0.44364,0.4846,0.01036,0.044-0.12852,0.387-0.30846,0.7633-0.17992,0.3765-0.34878,0.7547-0.37521,0.8407-0.08002,0.2604-0.68791,1.4732-1.2113,2.4168-0.19794,0.3569-0.38494,0.7074-0.41558,0.7788-0.03073,0.071-0.16142,0.3463-0.29068,0.6108-0.30321,0.6205-0.51297,1.521-0.46652,2.0028,0.04566,0.4735,0.12185,0.414,0.40043-0.3126zm8.321-1.8359c0.0786-0.2642,0.31589-0.8222,0.52728-1.2401,0.21142-0.4178,0.36589-0.7712,0.34329-0.7852-0.02263-0.014-0.23689,0.046-0.47611,0.1332-0.42668,0.1554-0.44018,0.171-0.7057,0.7858-0.36917,0.8558-0.39824,0.991-0.25606,1.1932,0.06508,0.092,0.15325,0.2269,0.19596,0.2987,0.12844,0.2158,0.22105,0.1197,0.37135-0.3856zm5.089-0.8424c-0.01059-0.045,0.16507-0.4015,0.39007-0.7939,0.51388-0.8966,0.84173-1.549,0.82147-1.6347-0.0087-0.037-0.17231-0.029-0.36379,0.016-0.30652,0.072-0.37096,0.1279-0.53932,0.4628-0.10516,0.2093-0.21569,0.4584-0.24563,0.5537-0.02989,0.095-0.15418,0.4391-0.27612,0.764-0.24963,0.665-0.25248,0.7137-0.04263,0.7185,0.2491,0.01,0.27559,0,0.25579-0.087zm8.064-2.0996c0.10072-0.1758,0.25404-0.4896,0.34068-0.6973,0.1957-0.4688,0.75254-1.7073,0.94159-2.094,0.13978-0.2859,0.11811-0.6977-0.03949-0.7502-0.08624-0.029-0.55494,0.9305-0.52225,1.0687,0.01059,0.045-0.07283,0.218-0.18506,0.3862-0.41405,0.6208-0.63517,1.1324-0.70001,1.6199-0.0366,0.275-0.0852,0.5715-0.10801,0.6587-0.06625,0.2538,0.0738,0.1551,0.27254-0.192zm-8.5381,1.5772c0.12533-0.2849,0.22264-0.5401,0.21626-0.5671-0.01312-0.055,0.23718-0.649,0.39502-0.9367,0.20418-0.3722,0.10519-0.4041-0.71895-0.2314-0.42412,0.089-0.63686,0.1661-0.64288,0.2343-0.01606,0.179-0.64095,1.5742-0.84189,1.8796-0.31603,0.4802-0.24112,0.5194,0.6091,0.3183l0.75552-0.1788,0.22785-0.5181zm7.6548-1.768c0.07507-0.1366,0.13387-0.3536,0.1307-0.482-0.004-0.1604,0.0559-0.2656,0.1909-0.3357,0.21964-0.1136,0.83735-1.1055,1.0453-1.6782,0.07439-0.2046,0.19514-0.4971,0.26842-0.6496,0.07324-0.1527,0.17972-0.4706,0.23662-0.7064,0.09582-0.3973,0.08561-0.4879-0.13907-1.2322-0.24078-0.7976-0.24304-0.8013-0.3271-0.548-0.04655,0.1404-0.14585,0.3425-0.2207,0.4491-0.07474,0.1071-0.17952,0.4116-0.23259,0.6778-0.05313,0.2659-0.20597,0.6887-0.3397,0.9392-0.13372,0.2505-0.27816,0.5978-0.32098,0.7716-0.04279,0.174-0.14065,0.4313-0.21739,0.5722-0.47568,0.8722-1.1896,2.4686-1.1599,2.5939,0.01405,0.059,0.27759,0.04,0.62724-0.045,0.24134-0.057,0.35615-0.1398,0.4582-0.3266zm-1.0131-0.6231c0.25377-0.4857,0.52114-1.0052,0.59417-1.1542l0.13278-0.2709-0.22883-0.1644c-0.12583-0.09-0.35493-0.1583-0.50908-0.1511-0.15427,0.01-0.2893-0.025-0.30015-0.071-0.01082-0.046-0.07205-0.01-0.13579,0.084-0.06375,0.092-0.15821,0.1782-0.21009,0.1905-0.05189,0.012-0.08467,0.063-0.07269,0.1138,0.01197,0.051-0.08214,0.2762-0.20903,0.5018l-0.23069,0.4102,0.20149,0.5265c0.19025,0.497,0.40439,0.892,0.47469,0.8753,0.01742,0,0.23928-0.405,0.49306-0.8907zm-11.905,2.8456c0.09374-0.2434,0.21044-0.5383,0.25938-0.6551l0.08896-0.2125-0.44807,0.106c-0.24645,0.058-0.46269,0.1496-0.48048,0.2031-0.03915,0.1178,0.28389,1.0346,0.35764,1.015,0.02869-0.01,0.12884-0.2131,0.22253-0.4567zm-8.1438,1.793c-0.03461-0.1463,0.58335-1.4034,1.5389-3.1305,0.1082-0.1955,0.31456-0.6514,0.45861-1.0129,0.14408-0.3615,0.37078-0.8551,0.50383-1.0967,0.20569-0.3738,0.43681-1.035,0.40649-1.1632-0.01243-0.053-0.81027,0.2431-0.92076,0.3417-0.15508,0.1384-0.57869,1.1843-0.72362,1.787-0.07651,0.3183-0.24773,0.7798-0.38047,1.0257-0.13276,0.2458-0.29032,0.5504-0.35017,0.6769-0.05987,0.1264-0.14897,0.3029-0.19799,0.3922-0.23485,0.4277-0.63071,1.5844-0.60399,1.7648,0.05928,0.4001,0.15559,0.6507,0.22375,0.5825,0.03786-0.038,0.05821-0.1135,0.04543-0.1675zm16.341-5.3476c0.1627-0.3998,0.5458-1.1692,0.85133-1.7098,0.30554-0.5406,0.5864-1.1329,0.62412-1.3165,0.03773-0.1835,0.12192-0.3668,0.18707-0.4074,0.11186-0.07,0.48898-0.774,0.46612-0.8706-0.006-0.025-0.07663-0.029-0.15736-0.01-0.08071,0.019-0.23513,0.2157-0.34316,0.4369-0.34084,0.6984-0.59333,1.1716-0.96765,1.814-0.19979,0.3429-0.42587,0.7894-0.5024,0.9923-0.13775,0.3654-0.38929,0.9193-0.5386,1.1862-0.08334,0.1489-0.05889,0.6498,0.03055,0.6263,0.02983-0.01,0.18736-0.3413,0.35003-0.7412zm-15.93,2.6174c0.24436-0.4693,0.51188-1.1368,0.59448-1.4831,0.08263-0.3462,0.25726-0.9072,0.38809-1.2465,0.13083-0.3394,0.22073-0.6276,0.1998-0.6404-0.02108-0.014-0.15246,0.026-0.29076,0.092-0.17265,0.08-0.27584,0.2017-0.3259,0.3875-0.04027,0.1494-0.2033,0.5307-0.36231,0.8472-0.25728,0.5123-0.60557,1.2774-1.1498,2.5259-0.15832,0.3633-0.16156,0.4376-0.03285,0.7588l0.14266,0.3559,0.19612-0.3721c0.1079-0.2045,0.39606-0.7561,0.64043-1.2255zm14.173-2.262c0.01434-0.1063-0.04497-0.1195-0.28107-0.063-0.1646,0.04-0.3822,0.1172-0.48391,0.171-0.1618,0.087-0.16465,0.1017-0.02424,0.1162,0.33943,0.036,0.77063-0.087,0.78916-0.2247zm-3.1949,0.2828c-0.01358-0.057-0.25205-0.001-0.68455,0.1624-0.11333,0.043-0.08646,0.058,0.09828,0.056,0.28951,0,0.60893-0.1225,0.58614-0.2188zm4.7501-1.5096c0.12052-0.282,0.29357-0.639,0.38457-0.7931,0.64242-1.0894,1.317-2.4235,1.2878-2.547-0.0097-0.041-0.27336,0-0.58623,0.087-0.55772,0.1567-0.57076,0.1659-0.65174,0.4714-0.04544,0.1714-0.18759,0.4922-0.31593,0.7127-0.33048,0.5679-0.58028,1.212-0.53851,1.3886,0.01957,0.083,0.01845,0.219-0.0025,0.3028-0.05287,0.2111,0.07,1.0244,0.14365,0.9507,0.03288-0.033,0.15857-0.2908,0.27911-0.5727zm5.5364-2.1551c0.08089-0.2997,0.29492-0.8601,0.47562-1.2451,0.20271-0.4317,0.31032-0.7773,0.28091-0.9015-0.04501-0.1903-0.06717-0.1948-0.39506-0.08-0.3783,0.1327-0.50605,0.226-0.47667,0.3501,0.01059,0.045-0.11274,0.2919-0.27373,0.5507-0.35834,0.5754-0.93294,1.665-0.94885,1.7992-0.0065,0.054-0.04875,0.1583-0.09403,0.2317-0.11659,0.1889-0.10157,0.2106,0.3567,0.5175l0.41114,0.2753,0.25847-0.4762c0.14214-0.262,0.32461-0.7217,0.4055-1.0215zm-21.841,4.7425c0.08515-0.2072,0.23583-0.53,0.33486-0.7172,0.2576-0.4868,0.61133-1.339,0.59116-1.4242-0.0094-0.04-0.14002-0.043-0.29033-0.01-0.18577,0.044-0.2802,0.1135-0.2946,0.2185-0.01994,0.144-0.02975,0.1466-0.15272,0.046-0.09387-0.08-0.31351-0.087-0.75239-0.024-0.72719,0.1042-0.70288,0.048-0.52347,1.1926l0.10928,0.6971,0.14298-0.2034c0.07858-0.1121,0.25465-0.4598,0.39117-0.773,0.26958-0.6185,0.38692-0.7716,0.54964-0.7176,0.07387,0.025,0.07257,0.074-0.0046,0.1641-0.16048,0.1878-0.82531,1.7781-0.79568,1.9033,0.01382,0.058-0.01106,0.1151-0.05536,0.1256-0.04431,0.01-0.03833,0.1908,0.01327,0.4008l0.09378,0.3817,0.24473-0.4405c0.1346-0.2423,0.31438-0.6102,0.39948-0.8176zm20.051-4c-0.01243-0.061,0.06656-0.2138,0.78787-1.5304,0.41142-0.7509,0.63244-1.2037,0.58882-1.2065-0.0166-0.01-0.28994,0.046-0.61051,0.1034l-0.58269,0.105-0.22427,0.4387c-0.12336,0.2413-0.29568,0.5779-0.38292,0.7481-0.08725,0.1701-0.12736,0.3624-0.08913,0.4274,0.08618,0.1461-0.14342,0.5956-0.35033,0.6855-0.08441,0.037-0.15066,0.1323-0.14719,0.2132,0.0046,0.11,0.06279,0.1344,0.23489,0.098,0.12507-0.03,0.30865-0.034,0.40623-0.017,0.22718,0.04,0.38497,0.012,0.36916-0.066zm-12.894,1.7535c0.3493-0.7788,0.61363-1.5222,0.58467-1.6446-0.003-0.013-0.1231,0.01-0.26684,0.04-0.27226,0.064-0.3868,0.2686-1.1713,2.0522-0.22746,0.5171-0.22863,0.5321-0.04196,0.5416,0.41168,0.021,0.47115-0.044,0.8953-0.9902zm1.076,0.3323c0.08808-0.1661,0.15453-0.3257,0.14763-0.3549-0.0069-0.029,0.04723-0.1644,0.12026-0.3005,0.07301-0.1363,0.15572-0.3125,0.18377-0.3917,0.02818-0.079,0.144-0.3534,0.25774-0.6093,0.1137-0.2559,0.20226-0.4883,0.1968-0.5163-0.01758-0.09-0.46342-0.032-0.81498,0.1065-0.31827,0.1257-0.35248,0.1718-0.48536,0.6448-0.07857,0.2803-0.23323,0.6997-0.34369,0.932-0.21112,0.4437-0.38051,0.8952-0.36328,0.968,0.0055,0.023,0.21953-0.01,0.47547-0.067,0.41965-0.099,0.48111-0.1396,0.62551-0.4119zm1.8961-0.4888c0.27975-0.5267,0.45425-1.0693,0.5235-1.6273l0.06251-0.5039-0.62359,0.1476-0.62359,0.1475-0.4375,1.0178c-0.41136,0.9572-0.55504,1.353-0.52985,1.4594,0.006,0.025,0.33305-0.031,0.72716-0.1248l0.71657-0.1695,0.18457-0.3476zm1.0726-0.2147c0.23737-0.5369,0.47407-0.9943,0.56099-1.0839,0.04693-0.049,0.07686-0.1251,0.0662-0.1702-0.01059-0.045,0.03857-0.2174,0.1094-0.3832,0.25241-0.5903,0.22675-0.622-0.38561-0.4771l-0.54701,0.1294-0.0923,0.3926c-0.05075,0.216-0.08596,0.4194-0.07822,0.4521,0.0078,0.033-0.11242,0.4109-0.26702,0.8405l-0.28104,0.7813,0.39186-0.093c0.34426-0.081,0.40784-0.1283,0.52275-0.3888zm1.5125-0.7796c0.59242-1.2624,0.71731-1.5596,0.67363-1.6033-0.0227-0.022-0.24503,0-0.49407,0.046-0.43288,0.084-0.45658,0.098-0.53123,0.3783-0.0433,0.1597-0.20873,0.5497-0.3676,0.8668-0.35272,0.7039-0.53791,1.1417-0.51818,1.2251,0.0081,0.034,0.20822,0.016,0.44471-0.039l0.42997-0.1017,0.36257-0.7726zm1.1402,0.174c0.10254-0.158,0.17738-0.3255,0.1663-0.3723-0.01105-0.047,0.12412-0.2852,0.30043-0.5297,0.27772-0.3851,0.60056-1.0545,0.57033-1.1823-0.0055-0.023-0.24781,0.014-0.53859,0.083-0.4732,0.112-0.54475,0.1536-0.68194,0.3953-0.28269,0.4984-0.86127,1.8668-0.83543,1.976,0.01796,0.076,0.14532,0.08,0.42902,0.013,0.33396-0.079,0.43552-0.1452,0.58992-0.3826zm1.7023-0.2398c0.0085,0,0.19723-0.3806,0.42091-0.8355,0.38031-0.7734,0.58764-1.3413,0.50768-1.3907-0.01905-0.012-0.28776,0.03-0.59719,0.093-0.53731,0.1086-0.56816,0.1241-0.67221,0.3859-0.06025,0.1495-0.33403,0.6576-0.60842,1.129-0.27439,0.4715-0.48908,0.8987-0.47708,0.9494,0.01543,0.065,0.22479,0.032,0.71698-0.1152,0.38233-0.1141,0.70154-0.2112,0.70952-0.2151zm3.913-2.1088c0.06654-0.1021,0.20828-0.3463,0.31506-0.5424,0.21133-0.3879,0.19294-0.3991-0.37517-0.2288-0.19165,0.058-0.31824,0.1636-0.40756,0.3427-0.15625,0.3127-0.15112,0.3467,0.07568,0.5014,0.22651,0.1545,0.24663,0.1507,0.39192-0.073zm-17.372,32.5c-0.13765-0.2946-0.20333-0.5667-0.23278-0.964-0.02254-0.3044-0.08236-0.7454-0.13295-0.9799-0.29828-1.383-0.78372-3.3486-1.1266-4.562-0.25753-0.9112-0.36032-1.3736-0.2963-1.3332,0.12663,0.08,0.75991,2.2445,1.1404,3.8978,0.37354,1.6233,0.44676,2.0068,0.55928,2.9297,0.06038,0.4952,0.14466,0.8522,0.25174,1.0674,0.08872,0.1779,0.13147,0.3304,0.09502,0.3391-0.03645,0.01-0.15256-0.169-0.25803-0.3948zm-2.1115-8.9322c-0.08742-0.3653-0.31253-1.2976-0.50021-2.0719-0.37349-1.5408-0.63916-3.1543-0.58478-3.5515,0.01909-0.1393-0.0058-0.3209-0.05524-0.4035-0.12895-0.2153-0.49907-1.7294-0.42694-1.7464,0.06033-0.014,0.23478,0.5472,0.30054,0.9674,0.01909,0.122,0.09437,0.3339,0.16723,0.4706,0.07288,0.1368,0.13865,0.4003,0.14612,0.5856,0.02943,0.7259,0.37444,2.6416,0.80443,4.4665,0.24978,1.0598,0.41893,1.9209,0.37931,1.9303-0.03935,0.01-0.14307-0.2819-0.23049-0.6471zm29.041-11.289c-0.02701-0.042-0.17895-0.485-0.4669-1.3618-0.19787-0.6024-0.37056-1.3684-0.56436-2.5032-0.26458-1.5493-0.72912-3.5056-0.92423-3.8923-0.10403-0.2061-0.2311-1.1504-0.15712-1.1676,0.13466-0.031,0.99786,3.5335,1.3343,5.5105,0.10713,0.6295,0.28202,1.3919,0.38862,1.6941,0.10663,0.3023,0.27626,0.7831,0.37696,1.0684,0.12581,0.3565,0.15876,0.5433,0.1053,0.5968-0.04276,0.043-0.08452,0.067-0.0926,0.055zm-31.72-0.8775c-0.033842-0.2609-0.12078-0.5944-0.19313-0.741-0.079708-0.1615-0.1373-0.4618-0.14608-0.7617-0.014954-0.5099-0.030154-0.5651-0.33071-1.201-0.11833-0.2502-0.17401-0.4789-0.16763-0.688,0.0053-0.1721-0.05234-0.5834-0.12805-0.9137-0.32483-1.4173-0.53741-2.5056-0.50097-2.5648,0.029478-0.047,0.80552,3.2951,1.3779,5.9343,0.014411,0.067,0.070793,0.3214,0.12516,0.5659,0.15308,0.6884,0.16686,0.8109,0.093304,0.8283-0.037578,0.01-0.096007-0.1972-0.12987-0.4583zm-1.6906-7.5952c-0.25906-0.765-0.41494-1.4766-0.3587-1.6375,0.032278-0.093,0.1213,0.1855,0.26564,0.8303,0.11932,0.5331,0.26304,1.0445,0.31935,1.1365,0.056461,0.092,0.06903,0.175,0.028026,0.1847-0.040887,0.01-0.15532-0.2216-0.25432-0.514zm29.741-8.4369c-0.13386-0.3113-0.14699-0.8416-0.02388-0.9648,0.05471-0.055,0.07741,0.01,0.07855,0.2122,0.00087,0.1591,0.01664,0.458,0.03504,0.6642l0.03341,0.3748-0.12312-0.2864zm-28.878,5.3251c0.015903-0.047,0.15697-0.096,0.31402-0.1061,0.17797-0.012,0.49108-0.1409,0.83244-0.3396,0.44948-0.2622,0.64329-0.3306,1.085-0.3832,0.70294-0.084,0.90167-0.1291,3.8319-0.88,1.9586-0.5025,2.2592-0.5664,1.4167-0.3033-0.97135,0.3038-1.2931,0.3933-2.0348,0.5667-2.239,0.5195-4.0812,1.0139-4.3602,1.1637-0.40733,0.2178-1.1255,0.4049-1.0847,0.2834zm27.956-6.6145c-0.09129-0.01-0.13662-0.044-0.10032-0.075,0.09178-0.08,0.92462-0.2023,0.93979-0.138,0.01678,0.071-0.63078,0.2345-0.83947,0.213zm-16.855,3.73c-0.47176-0.01-0.88612,0.055-1.5782,0.2308-0.56428,0.1438-0.87413,0.1956-0.77716,0.1305,0.31589-0.2123,1.7874-0.4866,2.4828-0.464,1.0599,0.035,0.95998,0.1161-0.12737,0.1031zm1.2957-0.1977c0.23014-0.072,0.5926-0.1577,0.80555-0.1902,0.21286-0.033,0.02435,0.025-0.41866,0.1299-0.44305,0.1046-0.61718,0.1317-0.38703,0.06zm1.228-0.2802c-0.0023-0.01,0.29395-0.1282,0.6567-0.2702,0.52206-0.2047,0.74662-0.2568,1.0767-0.2548,0.35873,0.01,0.49206-0.031,0.93895-0.2653,0.5428-0.2838,1.5056-0.6043,1.5283-0.5086,0.0071,0.03-0.19276,0.1155-0.44426,0.1894-0.2515,0.074-0.61105,0.2124-0.79873,0.3089-0.26004,0.1334-2.9446,0.8551-2.9588,0.7956zm8.4484-2.0391c-0.01873-0.079,2.0995-0.6652,2.9136-0.8066,1.5976-0.2773,1.2888-0.1348-0.75486,0.3488-1.1808,0.2794-2.1522,0.4856-2.1586,0.4583zm-0.75546,0.1325c0.05007-0.035,0.14069-0.057,0.20136-0.048,0.06067,0.01,0.01973,0.038-0.09101,0.065-0.11075,0.026-0.16043,0.018-0.11035-0.017zm-3.1915,37.997c-0.03079-0.019-0.08979,0.021-0.1313,0.09-0.06008,0.099-0.04875,0.1051,0.05569,0.034,0.0723-0.049,0.10618-0.1052,0.07567-0.1235zm14.734-3.5026c0.13942-0.1039,0.13841-0.1057-0.03311-0.071-0.09706,0.023-0.19174,0.077-0.20853,0.1284-0.03631,0.1093,0.0425,0.091,0.24164-0.057zm-31.035-1.4061c-0.03079-0.019-0.089816,0.021-0.1313,0.09-0.060079,0.099-0.048755,0.1051,0.055683,0.034,0.072297-0.049,0.10618-0.1053,0.075645-0.1236zm-2.6676-18.6c-0.034468-0.1457-0.056276-0.1255-0.13945,0.1296-0.12602,0.3865-0.081012,0.5678,0.067106,0.2704,0.062375-0.1252,0.09494-0.3051,0.072345-0.3999zm32.37-14.6c0.06998-0.1514,0.06644-0.1536-0.03755-0.023-0.10928,0.137-0.13629,0.2132-0.07,0.1975,0.01673,0,0.06496-0.083,0.10759-0.1743zm-35.721,8.112c-0.10712-0.066-0.12433,0.066-0.02698,0.2064,0.091394,0.1317,0.095753,0.1309,0.091862-0.011-0.00281-0.085-0.031569-0.1705-0.0638-0.1904zm30.37-11.171c-0.03298-0.02-0.10314-0.01-0.15668,0.027-0.05827,0.041-0.03458,0.055,0.06017,0.037,0.08492-0.02,0.1288-0.047,0.09582-0.067zm-14.839,3.33c-0.0051-0.021-0.07265-0.01-0.14984,0.035-0.07724,0.041-0.20687,0.059-0.2902,0.032-0.09393-0.027-0.14285-0.014-0.12995,0.041,0.01036,0.044,0.0853,0.077,0.1667,0.075,0.16477,0,0.41941-0.1147,0.40468-0.177zm-9.7606,2.2447c-0.30053-0.089-0.43179-0.059-0.19663,0.047,0.10119,0.044,0.23868,0.068,0.30508,0.052,0.070019-0.017,0.024727-0.057-0.10785-0.096z"/>
 </g>
</svg>
